<svg id="UI_icons" xmlns="http://www.w3.org/2000/svg" viewBox="0 0 128 128"><defs><style>.cls-1{fill:#fff;}</style></defs><title>96</title><g id="row10"><path id="linkedIn" class="cls-1" d="M64,0a64,64,0,1,0,64,64A64.06,64.06,0,0,0,64,0ZM99.6,95.1a5.32,5.32,0,0,1-5.3,5.2H33.5a5.25,5.25,0,0,1-5.3-5.2V33.5a5.32,5.32,0,0,1,5.3-5.2H94.4a5.25,5.25,0,0,1,5.3,5.2V95.1ZM88.8,69.9V88.5H78V71.2c0-4.4-1.6-7.3-5.5-7.3A5.77,5.77,0,0,0,67,67.8a7.1,7.1,0,0,0-.4,2.6V88.5H55.8s.1-29.4,0-32.4H66.6v4.6a.1.1,0,0,1-.1.1h.1v-.1a10.7,10.7,0,0,1,9.7-5.4C83.5,55.3,88.8,60,88.8,69.9ZM50.6,46c0,3.1-2.3,5.6-6.1,5.6h-.1c-3.6,0-6-2.5-6-5.6s2.4-5.6,6.1-5.6A5.72,5.72,0,0,1,50.6,46ZM39.1,56.1H49.9V88.5H39.1Z"/></g></svg>