<svg id="UI_icons" xmlns="http://www.w3.org/2000/svg" viewBox="0 0 128 128"><defs><style>.cls-1{fill:#fff;}</style></defs><title>97</title><g id="row10"><path id="twitter" class="cls-1" d="M114.9,37.9c.1,1.1.1,2.3.1,3.4C115,76,88.6,116,40.3,116A74.34,74.34,0,0,1,0,104.2c2.1.2,4.1.4,6.3.4A52.91,52.91,0,0,0,38.9,93.4,26.19,26.19,0,0,1,14.4,75.2a25.74,25.74,0,0,0,11.8-.4A26.27,26.27,0,0,1,5.1,49.1v-.3A26.45,26.45,0,0,0,17,52.1,27.14,27.14,0,0,1,5.4,30,25.86,25.86,0,0,1,9,16.8,74.56,74.56,0,0,0,63.1,44.2a29,29,0,0,1-.7-6,26.25,26.25,0,0,1,45.4-17.9,53.6,53.6,0,0,0,16.7-6.4,26.14,26.14,0,0,1-11.6,14.5A51.15,51.15,0,0,0,128,24.3,53,53,0,0,1,114.9,37.9Z"/></g></svg>