<svg id="UI_icons" xmlns="http://www.w3.org/2000/svg" viewBox="0 0 128 128"><defs><style>.cls-1{fill:#fff;}</style></defs><title>98</title><g id="row10"><path id="wordpress" class="cls-1" d="M12.1,64a51.82,51.82,0,0,0,29.3,46.7L16.6,42.9A51.17,51.17,0,0,0,12.1,64Zm87-2.6a26.92,26.92,0,0,0-4.3-14.3c-2.6-4.3-5.1-7.9-5.1-12.2,0-4.8,3.6-9.2,8.7-9.2h.7a52,52,0,0,0-78.5,9.8c1.2,0,2.4.1,3.3.1,5.4,0,13.8-.7,13.8-.7,2.8-.2,3.1,3.9.3,4.3,0,0-2.8.3-5.9.5L51,95.9,62.4,61.8,54.3,39.6c-2.8-.2-5.4-.5-5.4-.5-2.8-.2-2.5-4.4.3-4.3,0,0,8.6.7,13.7.7,5.4,0,13.8-.7,13.8-.7,2.8-.2,3.1,3.9.3,4.3,0,0-2.8.3-5.9.5L89.9,95.4l5.2-17.3C97.7,71.4,99.1,65.8,99.1,61.4ZM64.9,68.5,49.3,113.8A51.22,51.22,0,0,0,64,115.9,51.76,51.76,0,0,0,81.2,113c-.1-.2-.3-.5-.4-.7Zm44.7-29.4a43.91,43.91,0,0,1,.4,5.3A48.36,48.36,0,0,1,106,63L90.1,108.8a52,52,0,0,0,19.5-69.7ZM64,128a64,64,0,1,1,64-64A64.06,64.06,0,0,1,64,128ZM64,6.3A57.7,57.7,0,1,0,121.7,64,57.79,57.79,0,0,0,64,6.3Z"/></g></svg>