<svg id="UI_icons" xmlns="http://www.w3.org/2000/svg" viewBox="0 0 128 128"><defs><style>.cls-1{fill:#fff;}</style></defs><title>99</title><g id="row10"><path id="insta" class="cls-1" d="M103.3,0H24.7A24.75,24.75,0,0,0,0,24.7v78.5A24.77,24.77,0,0,0,24.7,128h78.5a24.75,24.75,0,0,0,24.7-24.7V24.7A24.6,24.6,0,0,0,103.3,0Zm7.1,14.8h2.8V36.5l-21.6.1-.1-21.7ZM45.7,50.9a22.51,22.51,0,0,1,36.6,0A22.1,22.1,0,0,1,86.6,64a22.5,22.5,0,0,1-45,0A21.94,21.94,0,0,1,45.7,50.9Zm69.8,52.4a12.29,12.29,0,0,1-12.3,12.3H24.7a12.29,12.29,0,0,1-12.3-12.3V50.9H31.5A35.51,35.51,0,0,0,29,64a35,35,0,0,0,70,0,33.65,33.65,0,0,0-2.6-13.1h19.1Z"/></g></svg>