<svg id="Layer_1" data-name="Layer 1" xmlns="http://www.w3.org/2000/svg" viewBox="0 0 50 50"><defs><style>.cls-1{fill:#fff;}</style></defs><title>Hamburger Icon-01white</title><path class="cls-1" d="M3.55,46.31l-.67-.18a4.18,4.18,0,0,1,.59-8.19,8.73,8.73,0,0,1,1-.05H45.36a4.29,4.29,0,0,1,4.39,2.77,4.19,4.19,0,0,1-3.23,5.56,1.62,1.62,0,0,0-.27.1Z"/><path class="cls-1" d="M24.89,12.77H4.09a4.18,4.18,0,1,1,0-8.36H45.74a4.18,4.18,0,0,1,1.32,8.16,4.87,4.87,0,0,1-1.38.18Z"/><path class="cls-1" d="M24.9,21.17H45.84A4.17,4.17,0,0,1,47,29.35a4.45,4.45,0,0,1-1.19.17H4a4.18,4.18,0,0,1-.84-8.29,4.67,4.67,0,0,1,.9-.06Z"/></svg>