<svg id="Layer_1" data-name="Layer 1" xmlns="http://www.w3.org/2000/svg" viewBox="0 0 150 36"><title>Swaadh Logo black</title><path d="M20.38,23.22c0,.32,0,.64-.06,1a8.31,8.31,0,0,1-.7,2.41,1.87,1.87,0,0,1-.59.78,3.37,3.37,0,0,0-.71.74,10.73,10.73,0,0,0-.67.87,3.48,3.48,0,0,1-.94.91,3.17,3.17,0,0,1-.91.38c-.4.11-.79.24-1.17.38l-1,.42a4.78,4.78,0,0,1-1.06.29,7.25,7.25,0,0,1-1.45.11.81.81,0,0,1-.26,0,15.83,15.83,0,0,1-2-.16,18.27,18.27,0,0,1-2-.4,9.29,9.29,0,0,1-1.73-.62,6.82,6.82,0,0,1-1.94-1.39,17.59,17.59,0,0,1-1.62-2.05,5.47,5.47,0,0,0-.43-.54,1.84,1.84,0,0,1-.3-.4,3.78,3.78,0,0,1-.26-.58,10.89,10.89,0,0,1-.29-1.06L0,23.32A1.13,1.13,0,0,1,0,23a.77.77,0,0,1,0-.27.62.62,0,0,1,.44-.26,4.85,4.85,0,0,1,1.1-.07h.88l1.32,0H5.12a3,3,0,0,1,.88.1,1.13,1.13,0,0,1,.72.65,2.6,2.6,0,0,0,.8,1,.61.61,0,0,0,.39.14h.22a.63.63,0,0,1,.39.14c.15.06.23.14.24.25s.11.19.28.25a4.76,4.76,0,0,0,1.23.15,6.41,6.41,0,0,0,1.37-.11,2.11,2.11,0,0,0,1.06-.4,6.92,6.92,0,0,1,.76-.58,1.3,1.3,0,0,1,.38-.15,1.84,1.84,0,0,0,.46-.19,1,1,0,0,0,.36-.35,1,1,0,0,0,.1-.44v-.18a.44.44,0,0,0-.22-.09.13.13,0,0,0-.09,0,.59.59,0,0,0-.14.28,1.74,1.74,0,0,0,0,.38v.17h0c-.23,0-.48-.18-.74-.54a2.9,2.9,0,0,0-1-.76,4.36,4.36,0,0,0-1.89-.47H10.5a.81.81,0,0,1-.26,0,6.34,6.34,0,0,1-1.41-.15,1.11,1.11,0,0,1-.41-.25,1.51,1.51,0,0,0-.59-.3c-.38-.12-.78-.24-1.18-.35a5.59,5.59,0,0,1-1.14-.43A7.38,7.38,0,0,1,3.67,18.7a12.74,12.74,0,0,1-1.51-2,6.18,6.18,0,0,1-.62-1.57,7.44,7.44,0,0,1-.21-1.92.39.39,0,0,1,0-.18,7.33,7.33,0,0,1,.25-1.76,5,5,0,0,1,.73-1.79,1.14,1.14,0,0,1,.49-.39,2.2,2.2,0,0,0,.58-.38,1.55,1.55,0,0,0,.32-.59,1.07,1.07,0,0,1,.23-.46,3.29,3.29,0,0,1,.67-.32A8.07,8.07,0,0,0,5.43,7a14.63,14.63,0,0,1,2.08-.92,9.12,9.12,0,0,1,2.6-.56,8,8,0,0,1,.81.08,10.52,10.52,0,0,1,1.18.24c.42.11.85.23,1.27.37s.8.27,1.12.39.76.35,1.05.5.63.35,1,.59a1.69,1.69,0,0,1,.26.24l.17.25.21.33a4.77,4.77,0,0,0,.35.47,1.22,1.22,0,0,0,.41.25.66.66,0,0,1,.37.29,5.26,5.26,0,0,1,.45,1c.13.4.23.79.31,1.17s.15.7.2,1v.44c-.06.09-.35.13-.88.12a8.72,8.72,0,0,1-.88,0c-.3,0-.62,0-1-.06-.67,0-1.33,0-2-.07s-1.05-.08-1.25-.11a2.68,2.68,0,0,1-1-.41,2.7,2.7,0,0,0-1.09-.41H11c-.24,0-.51,0-.84,0a5.66,5.66,0,0,0-1.39.31,2.31,2.31,0,0,0-1,.58.42.42,0,0,0-.14.31.91.91,0,0,0,.26.58,4.19,4.19,0,0,0,.57.38,6.05,6.05,0,0,0,.7.38,28.61,28.61,0,0,0,3.23.62,10.82,10.82,0,0,1,3.22,1,1.72,1.72,0,0,1,.52.38,2.43,2.43,0,0,0,.52.43,1.56,1.56,0,0,0,.68.32,1.54,1.54,0,0,1,.59.23,1.6,1.6,0,0,0,.13.4l.15.33a.71.71,0,0,0,.24.29,11.31,11.31,0,0,1,1,1.2,5,5,0,0,1,.81,1.69A6.68,6.68,0,0,1,20.38,23.22Zm-18.1-9s.08,0,.13-.09.09-.06.09-.09a.13.13,0,0,0,0-.09s0,0,0,0a.17.17,0,0,0-.13,0c-.09.06-.13.1-.13.13a.16.16,0,0,0,.13.13Zm.53-2.85A.24.24,0,0,0,3,11.25c.06,0,.09-.06.09-.09a.13.13,0,0,0,0-.09.12.12,0,0,0-.09,0s-.07,0-.13.09-.09.1-.09.13a.13.13,0,0,0,0,.09Zm.57.54s.07,0,.13-.09.09-.06.09-.09a.14.14,0,0,0,0-.09.12.12,0,0,0-.09,0l-.13,0c-.06.06-.09.1-.09.13a.13.13,0,0,0,0,.09A.14.14,0,0,0,3.38,11.88Zm0,1.41,0,0c.06,0,.09-.06.09-.17s0-.12-.13-.18h0c-.06,0-.09.06-.09.17S3.31,13.25,3.4,13.29Zm0,11.8s.07,0,.13-.09.09-.1.09-.13a.13.13,0,0,0,0-.09h0a.35.35,0,0,0-.17,0c-.06.06-.09.1-.09.13a.14.14,0,0,0,0,.09A.13.13,0,0,0,3.45,25.09ZM3.85,12.5s0,0,.09,0H4c.06,0,.09-.06.09-.17s.18-.06.18-.09a.12.12,0,0,0,0-.09H4.12s0,0,0,.09v.09C3.93,12.43,3.85,12.47,3.85,12.5Zm0-.75H4a0,0,0,0,0,0,0c.06,0,.09-.06.09-.18s.18-.1.18-.13a0,0,0,0,0,0,0h0c-.06,0-.09,0-.09.09v.09C3.94,11.65,3.86,11.69,3.86,11.75Zm.24,1.46a.48.48,0,0,0,.18-.09A.28.28,0,0,0,4.38,13a.14.14,0,0,0,0-.09.14.14,0,0,0-.09,0s-.07,0-.13.09S4,13,4,13.07a.13.13,0,0,0,0,.09S4.08,13.21,4.11,13.21Zm.44-2.72V10.4a.25.25,0,0,0-.17-.09,1.43,1.43,0,0,0,0-.26.35.35,0,0,0,0-.22H4.29a.18.18,0,0,0-.13,0,.49.49,0,0,0-.09.26c0,.12.1.18.31.18v.27c-.2,0-.31.05-.31.17a.37.37,0,0,0,.08.27.14.14,0,0,0,.09,0l.13,0s0-.06,0-.18a1,1,0,0,0,0-.26C4.48,10.54,4.54,10.51,4.54,10.48ZM4.25,9.12h0c-.06,0-.09.06-.09.17s0,.1.13.13l0,0c.06,0,.09-.06.09-.18A.17.17,0,0,0,4.25,9.12Zm.36,5.64s.08,0,.13-.09a.26.26,0,0,0,.09-.13.14.14,0,0,0,0-.09h0a.33.33,0,0,0-.13,0c-.09.06-.13.1-.13.13a.11.11,0,0,0,0,.09A.13.13,0,0,0,4.61,14.76ZM5,12.29H5c.06,0,.09-.06.09-.17S5,12,5,11.94h0c-.06,0-.09.06-.09.17A.17.17,0,0,0,5,12.29Zm.19,2.47s.08,0,.13-.09.09-.1.09-.13a.14.14,0,0,0,0-.09h0a.43.43,0,0,0-.18,0c-.06.06-.09.1-.09.13a.12.12,0,0,0,0,.09A.13.13,0,0,0,5.14,14.76Zm0-.79a.24.24,0,0,0,.18-.09c.06,0,.09-.06.09-.09a.14.14,0,0,0,0-.09.13.13,0,0,0-.09,0l-.13,0a.26.26,0,0,0-.09.18.13.13,0,0,0,0,.09Zm.27-.52a.26.26,0,0,0,.18-.09c.06,0,.09-.06.09-.09a.14.14,0,0,0,0-.09.15.15,0,0,0-.09,0s-.07,0-.13.09-.09.1-.09.13a.12.12,0,0,0,0,.09ZM5.91,13a.48.48,0,0,0,.18-.09c.06-.06.09-.1.09-.13a.16.16,0,0,0-.13-.13s-.08,0-.13.09a.26.26,0,0,0-.09.13.13.13,0,0,0,0,.09A0,0,0,0,0,5.91,13Zm.08.88,0,0c.06,0,.09-.06.09-.17A.17.17,0,0,0,6,13.54H6c-.06,0-.09.06-.09.17S5.9,13.82,6,13.85ZM6,28.47a.48.48,0,0,0,.18-.09c.06,0,.09-.06.09-.09a.12.12,0,0,0,0-.09.12.12,0,0,0-.09,0s-.08,0-.13.09a.28.28,0,0,0-.09.13.14.14,0,0,0,0,.09Zm.32-3.61s.07,0,.13-.09.09-.1.09-.13a.12.12,0,0,0,0-.09h0l-.13,0c-.06.06-.09.1-.09.13a.13.13,0,0,0,0,.09A0,0,0,0,0,6.27,24.86Zm.23,2.6s.08,0,.13-.09.09-.1.09-.13a.13.13,0,0,0,0-.09h0a.31.31,0,0,0-.13,0c-.09.06-.13.1-.13.13a.13.13,0,0,0,0,.09A.12.12,0,0,0,6.49,27.46Zm.08-2.29h0c-.06,0-.09.06-.09.17s0,.11.13.14l0,0c.06,0,.09-.06.09-.17S6.66,25.24,6.57,25.17ZM7,28.92s0,0,0-.09v0c0-.06-.06-.09-.17-.09s-.05-.17-.08-.17,0,0,0,0a.12.12,0,0,0,0,.09s0,0,.09,0h.09C7,28.85,7,28.92,7,28.92Zm.09-3.61s-.07,0-.13.09-.09.1-.09.13a.13.13,0,0,0,0,.09.13.13,0,0,0,.09,0s.07,0,.13-.09.09-.1.09-.13a.13.13,0,0,0,0-.09A.14.14,0,0,0,7.14,25.31Zm.12,1.1a.26.26,0,0,0,.18-.09q.09,0,.09-.09a.12.12,0,0,0,0-.09.13.13,0,0,0-.09,0s-.07,0-.13.09-.09.1-.09.13a.13.13,0,0,0,0,.09Zm.07,1.41,0,0c.06,0,.09-.06.09-.18s0-.12-.13-.18h0c-.06,0-.09.06-.09.17S7.24,27.8,7.33,27.83Zm.92.19a0,0,0,0,0,0,0,.29.29,0,0,0,.18-.22v0a.31.31,0,0,0-.09-.22h0A.62.62,0,0,0,8,27.7a1.12,1.12,0,0,0,0-.26.33.33,0,0,0,0-.22H7.91a.17.17,0,0,0-.13,0,.48.48,0,0,0-.09.26c0,.12.1.18.31.18C8.07,27.91,8.16,28,8.25,28ZM8,28.76a.24.24,0,0,0,.18-.09c.06,0,.09-.06.09-.09a.13.13,0,0,0,0-.09.11.11,0,0,0-.09,0L8,28.5c-.06.06-.09.1-.09.13a.13.13,0,0,0,0,.09S8,28.76,8,28.76Zm.28-1.54s.08,0,.13-.09A.24.24,0,0,0,8.53,27a.14.14,0,0,0,0-.09h0a.35.35,0,0,0-.13,0c-.06.05-.09.1-.09.13a.13.13,0,0,0,0,.09S8.27,27.23,8.3,27.23Zm.11-1.5H8.33s0,.06,0,.17,0,.1.13.13,0,0,0,0,0-.06,0-.17A.26.26,0,0,0,8.41,25.73Zm1,1s.08,0,.13-.09.09-.05.09-.08a.13.13,0,0,0,0-.09.12.12,0,0,0-.09,0l-.13,0c-.06.06-.09.1-.09.13a.12.12,0,0,0,0,.09A.13.13,0,0,0,9.37,26.71Zm0-6.87c0,.15,0,.24.08.27a.13.13,0,0,0,.09,0,.26.26,0,0,0,.18-.09.43.43,0,0,0,.14-.31v0c0-.15-.17-.24-.44-.27A2.07,2.07,0,0,0,9.34,19.84Zm.76,8.42a.48.48,0,0,0,.18-.09q.09,0,.09-.09a.11.11,0,0,0,0-.09.13.13,0,0,0-.09,0s-.08,0-.13.09-.09.1-.09.13a.13.13,0,0,0,0,.09Zm.23,2.07s.08,0,.13-.09.09-.06.09-.09a.13.13,0,0,0,0-.09s0,0,0,0-.07,0-.13.09-.09.1-.09.13a.13.13,0,0,0,0,.09Zm.25-1.8a.24.24,0,0,0,.18-.09c.06,0,.09-.05.09-.08a.12.12,0,0,0,0-.09,0,0,0,0,0,0,0s-.07,0-.13.09-.13.1-.14.13a.14.14,0,0,0,0,.09Zm.06-.74s.07,0,.13-.09.09-.1.09-.13a.14.14,0,0,0,0-.09,0,0,0,0,0,0,0s-.07,0-.13.09-.13.1-.13.13a.13.13,0,0,0,0,.09A.15.15,0,0,0,10.63,27.79Zm0-2.07s.07,0,.13-.09.09-.1.09-.13a.14.14,0,0,0,0-.09,0,0,0,0,0,0,0s-.07,0-.13.09-.13.1-.13.13a.13.13,0,0,0,0,.09A.14.14,0,0,0,10.66,25.72Zm7.91.67a.39.39,0,0,0-.13-.18l-.17-.14a.65.65,0,0,1-.17-.29.18.18,0,0,1,0,.13.29.29,0,0,1-.09.22c-.09.12-.16.17-.22.17a.81.81,0,0,1,0-.53,1.19,1.19,0,0,0,0-.31.46.46,0,0,0,0-.22.71.71,0,0,0-.11-.22,1.49,1.49,0,0,0-.19-.27h-.17a.47.47,0,0,0,0,.26v.22a.84.84,0,0,1-.22,0,.18.18,0,0,1-.13,0,.3.3,0,0,1-.13-.27.18.18,0,0,1,0-.13.49.49,0,0,1,0-.22v-.13a.76.76,0,0,0,0-.26h.27c.06.12.1.18.13.18s0,0,0-.09a.08.08,0,0,0-.09-.09h-.09v-.17c0-.18,0-.27-.09-.27h0a.34.34,0,0,0-.14.31v.13a1.64,1.64,0,0,1-1,.25l-.17-.35a1,1,0,0,1-.08-.44h.26c.06.12.1.18.13.18s0,0,0-.09a.08.08,0,0,0-.09-.09h-.09v0c0-.15-.08-.22-.26-.22v-.53c.12,0,.18-.05.18-.08a.13.13,0,0,0,0-.09h-.09s0,0,0,.09v.09a.31.31,0,0,0-.22.31.19.19,0,0,0,.21.22v.26a.36.36,0,0,0-.24.15.31.31,0,0,1-.29.1c0-.15-.07-.22-.13-.22v0a.14.14,0,0,0,0,.09c0,.06.06.09.18.09a1.43,1.43,0,0,0-.23.44v.09c0,.12.07.19.21.22v.27a.71.71,0,0,0-.51.15,2.37,2.37,0,0,0-.29.35,3.53,3.53,0,0,1-.29.37.59.59,0,0,1-.46.17v-.53c.29,0,.47,0,.53-.12v-.09a.19.19,0,0,0,0-.14A.31.31,0,0,0,13.7,25h0c-.12,0-.19.17-.23.44h-.27v-.17c0-.18,0-.26-.08-.26h0a.34.34,0,0,0-.13.3v.13h-.09c-.06,0-.09,0-.09,0a2.33,2.33,0,0,0-.09.22,1.3,1.3,0,0,0-.31,0c-.44,0-.68.18-.71.56h0c-.15,0-.22.08-.22.26h-.26c0-.15-.07-.22-.13-.22v0a.13.13,0,0,0,0,.09c0,.06.06.09.17.09v.13a.34.34,0,0,0,.26.35c.06.15.1.22.13.22s0,0,0-.09v0c0-.06-.06-.09-.17-.09v-.48h0c.15,0,.22-.09.23-.26a.86.86,0,0,1,.19.31,1.09,1.09,0,0,0,.17.31.57.57,0,0,0,.33.18.19.19,0,0,0,.13,0,1.41,1.41,0,0,0,.44-.08.82.82,0,0,1,0,.26.84.84,0,0,1,0,.27.31.31,0,0,1-.27.26c0-.12-.06-.18-.09-.18h0a.23.23,0,0,0-.09.17h-.27c-.06-.12-.1-.18-.13-.18a0,0,0,0,0,0,0v0a.08.08,0,0,0,.09.09h.09v.09a.46.46,0,0,0,.26.44.54.54,0,0,0,.35.31.23.23,0,0,1,.17.27.35.35,0,0,1,0,.17c-.17,0-.27.08-.27.17a.36.36,0,0,0,.08.27.13.13,0,0,0,.09,0,.13.13,0,0,0,.09,0s0,0,0-.13a1.27,1.27,0,0,0,0-.31.91.91,0,0,1,.27,0,.3.3,0,0,1,.22.09.37.37,0,0,1,.09.27v0a1.36,1.36,0,0,1-.16.41l-.16.28c-.12,0-.18.06-.18.09s0,0,.09,0,0,0,0,0,0,0,0-.09v-.09a2.85,2.85,0,0,0,.44.05c.12,0,.19,0,.22-.09v-.44a1.67,1.67,0,0,1-.08-.53c0-.18.16-.28.49-.3a5.58,5.58,0,0,0-.05.57v.09a.13.13,0,0,0,.09,0,.12.12,0,0,0,.09,0,2.24,2.24,0,0,0,.31-.26.38.38,0,0,1,.27-.13h0a.4.4,0,0,0,.18,0,.18.18,0,0,0,.13,0c.09,0,.17-.27.23-.74.18-.09.27-.17.27-.26a.37.37,0,0,0,0-.13.74.74,0,0,1-.21-.4.64.64,0,0,0,.22,0,.2.2,0,0,0,.22-.13.51.51,0,0,1,.35-.17v0c0,.15.08.22.26.23v.09c0,.12.07.18.21.18s.1.18.13.18.06,0,.09-.09v0s0,0-.13,0h-.09v-.26h.18a.34.34,0,0,0,.35-.26A1.34,1.34,0,0,1,17.6,27h.13a1.48,1.48,0,0,1,.08.27.72.72,0,0,0,.26.35.55.55,0,0,0,.08-.61,2.2,2.2,0,0,1-.11-.27v0a.13.13,0,0,1,0-.09,1.07,1.07,0,0,0,.26.14l.26.09A1.25,1.25,0,0,0,18.57,26.38ZM11.11,28a.26.26,0,0,0,.18-.09c.06,0,.09-.06.09-.09a.14.14,0,0,0,0-.09.12.12,0,0,0-.09,0s-.08,0-.13.09-.09.1-.09.13a.14.14,0,0,0,0,.09Zm.19-18.4a.2.2,0,0,0-.13,0c-.09.05-.13.1-.13.13a.13.13,0,0,0,0,.09.12.12,0,0,0,.09,0s.07,0,.13-.09.09-.06.09-.09a.12.12,0,0,0,0-.09S11.32,9.61,11.29,9.61ZM11.23,7.9h0c-.06,0-.09.06-.09.18a.18.18,0,0,0,.13.18h0c.06,0,.09-.06.09-.17S11.32,8,11.23,7.9Zm.43,21.71s.07,0,.13-.09.09-.1.09-.13a.13.13,0,0,0,0-.09h0a.39.39,0,0,0-.18,0,.28.28,0,0,0-.09.13.14.14,0,0,0,0,.09A.13.13,0,0,0,11.66,29.61Zm.9-1.53c0,.15-.06.22-.18.22v-.53h.22A.9.9,0,0,0,12.56,28.08Zm.29-19.72a.29.29,0,0,0-.13,0q-.09.09-.09.13a.12.12,0,0,0,0,.09,0,0,0,0,0,0,0s.08,0,.13-.09.09-.1.09-.13a.13.13,0,0,0,0-.09Zm.32,17.26v-.18h-.26v0c0,.15-.09.22-.27.21a1.46,1.46,0,0,0,.17.33.82.82,0,0,0,.3.29.25.25,0,0,0,.17.09h.09s0-.12,0-.26V26A.31.31,0,0,1,13.17,25.62Zm-.35,2.6s0-.07.13-.13.1-.09.13-.09,0,0,0,0a.12.12,0,0,1,0,.09s0,.06-.09.09a.26.26,0,0,1-.18.09h0A.14.14,0,0,1,12.82,28.22Zm.2-1.41h0s.06.06.09.17h-.26C12.89,26.92,12.93,26.87,13,26.81Zm.48,0h.09a.25.25,0,0,1,0,.18V27a.28.28,0,0,1-.18.21,0,0,0,0,1,0,0c-.09,0-.17-.1-.26-.31A.62.62,0,0,1,13.5,26.77Zm-.13-6.3a.13.13,0,0,0,.09,0,2,2,0,0,0,.31-.13.25.25,0,0,0-.21-.27h0c-.12,0-.21.09-.27.26S13.32,20.47,13.38,20.47Zm.11,7.4h0c.09.06.13.12.13.18s0,.17-.09.17l0,0c-.09,0-.13-.08-.13-.13S13.43,27.87,13.49,27.87Zm.37-1.45a0,0,0,0,1,0,0h-.09c0-.06.07-.1.22-.13C13.95,26.37,13.92,26.43,13.86,26.43Zm0,1.81s0-.07.09-.13.1-.09.13-.09a.12.12,0,0,1,.09,0,.11.11,0,0,1,0,.09s0,.06-.09.09a.48.48,0,0,1-.18.09h0A.14.14,0,0,1,13.88,28.23ZM14,27.09a.12.12,0,0,1,.09,0,.56.56,0,0,1,.08.31v.09c0,.12-.08.18-.13.17s0,0,0,0a.49.49,0,0,1-.09-.26v-.13C14,27.15,14,27.09,14,27.09ZM14,26.16a.08.08,0,0,1,.09-.09h0a0,0,0,0,1,0,0s-.06.07-.18.13Zm.71,2.65-.13,0a1.47,1.47,0,0,1-.35-.05.32.32,0,0,1,.27-.26h.13a1.56,1.56,0,0,1,.35,0A.24.24,0,0,1,14.66,28.82Zm.15-1c-.15,0-.23,0-.26-.14a0,0,0,0,1,0,0c0-.06.09-.09.26-.09h.18v.26Zm0-2.42v0a1,1,0,0,0,.14-.39c.12,0,.18-.07.18-.13v0a.18.18,0,0,0-.18-.09.33.33,0,0,1,.31-.26h.13a1.58,1.58,0,0,1,.35,0,1.59,1.59,0,0,1-.27.48,1.45,1.45,0,0,0-.27.52C15,25.47,14.84,25.44,14.85,25.38Zm.33-16.77s-.07,0-.13.09-.13.1-.13.13a.12.12,0,0,0,0,.09A.12.12,0,0,0,15,9s.08,0,.13-.09.09-.1.09-.13a.13.13,0,0,0,0-.09S15.21,8.62,15.18,8.61Zm0,19.82c0,.06,0,.09,0,.08l-.22.09a1.48,1.48,0,0,1,.09-.22s0,0,.09,0h.09Zm0-.4v0L15,28a.08.08,0,0,1-.09-.09v-.09C15.12,27.81,15.2,27.88,15.2,28Zm.1-1h.09c.09,0,.13.06.13.17a1.48,1.48,0,0,1,0,.31h-.53A.53.53,0,0,1,15.31,27.06Zm-.08-1c0,.06,0,.09,0,.09s0,0,0,0-.09,0-.09,0,.06-.06.18-.09Zm.23,2.2v0H15.2v-.26C15.38,28.08,15.46,28.15,15.46,28.3ZM15.32,26h-.09v-.53h.53c0,.12.06.18.09.18a.13.13,0,0,0,.09,0,.14.14,0,0,0,.09-.13.22.22,0,0,0,.2.16l.33,0a1.2,1.2,0,0,1,.33.09A.24.24,0,0,1,17,26h-.09c-.06,0-.09,0-.09,0a1.36,1.36,0,0,0-.09.22.67.67,0,0,0-.48-.23.82.82,0,0,0-.53.21A.41.41,0,0,0,15.32,26Zm.48.58q0,.13,0,.13a.12.12,0,0,1-.09,0s-.06,0-.09-.09a.3.3,0,0,1-.13-.27c0-.09.1-.13.31-.13A1.41,1.41,0,0,1,15.8,26.59Zm.31,3,0-.09v0c0-.06-.06-.09-.17-.09s-.06-.18-.08-.18h0c-.09.06-.13.12-.13.17s-.18.1-.18.13,0,0,0,0h0a.08.08,0,0,0,.09-.09v-.09H16C16,29.51,16,29.58,16.1,29.59Zm-.38-19a.55.55,0,0,0,.08.31.12.12,0,0,0,.09,0s.06-.06.09-.17v-.09a.52.52,0,0,0-.08-.31.12.12,0,0,0-.09,0s-.06.06-.09.17Zm0,14.79a.34.34,0,0,1,.14-.3h0c.06,0,.09.09.09.27v.17h-.27Zm.44,3c0,.09,0,.13,0,.13a.12.12,0,0,0,.09,0s.06,0,.09-.09a.35.35,0,0,0,.09-.26c0-.09-.09-.13-.26-.14s-.1-.22-.13-.22,0,0,0,0V28c0,.06.06.09.17.09A1.16,1.16,0,0,0,16.21,28.4Zm0-5.42s0,0,0,0v0a.08.08,0,0,0,.09.09h.09a2,2,0,0,0-.1.44.18.18,0,0,0,.09.17c0,.06.06.09.09.09s.06,0,.09-.09a.6.6,0,0,0,.14-.31c0-.12-.1-.22-.3-.31S16.23,23,16.2,23Zm.07,4.31q0-.26.23-.26h0v.26Zm.28,2.12s.08,0,.13-.09.09-.1.09-.13a.13.13,0,0,0,0-.09h0a.33.33,0,0,0-.13,0,.28.28,0,0,0-.09.13.14.14,0,0,0,0,.09A0,0,0,0,0,16.55,29.42Zm.21-2.07a.13.13,0,0,1,0,.09.34.34,0,0,1,0,.13h-.22V27.3A.47.47,0,0,0,16.75,27.35Zm0-.66c.06,0,.09-.1.09-.22a.74.74,0,0,0,0-.17H17V27h-.48A.42.42,0,0,1,16.72,26.69ZM16.91,23s0,0,.09,0a.08.08,0,0,0,.09-.09V22.9c.15,0,.22-.07.22-.13l0,0h-.09c-.06,0-.09.06-.09.17S16.91,23,16.91,23ZM17,27.09c0,.15.09.22.26.22v-.09a.17.17,0,0,0,0-.13A.76.76,0,0,1,17,27Zm.19-1v0c0,.06-.06.1-.18.13V26A.18.18,0,0,1,17.21,26.12Zm.1-4a.17.17,0,0,0-.13,0c-.09.06-.13.11-.14.17a.14.14,0,0,0,0,.09h0a.26.26,0,0,0,.18-.09c.06,0,.09-.06.09-.09a.12.12,0,0,0,0-.09A0,0,0,0,0,17.31,22.12Zm.3,3.31a.36.36,0,0,1-.09.26.13.13,0,0,1-.09,0,.13.13,0,0,1-.09,0c-.06,0-.09-.06-.09-.18a1.13,1.13,0,0,1,0-.26C17.52,25.25,17.62,25.31,17.62,25.43Zm-.1-2a.23.23,0,0,0-.13.08c-.06.06-.09.1-.09.13a.12.12,0,0,0,0,.09.13.13,0,0,0,.09,0s.08,0,.13-.09.09-.1.09-.13a.13.13,0,0,0,0-.09A.13.13,0,0,0,17.52,23.4Zm.49-.12h0c-.06,0-.09.06-.09.17s0,.1.13.13l0,0c.06,0,.09-.06.09-.18S18.09,23.33,18,23.28Zm.14,2.29a.4.4,0,0,0,.18-.09.26.26,0,0,0,.09-.13.14.14,0,0,0,0-.09h0a.42.42,0,0,0-.18,0c-.06.06-.09.1-.09.13a.12.12,0,0,0,0,.09S18.11,25.56,18.14,25.56Zm.15-1.36s-.08,0-.13.09-.09.1-.09.13a.11.11,0,0,0,0,.09h0a.38.38,0,0,0,.18-.08c.06,0,.09-.06.09-.09a.13.13,0,0,0,0-.09A.13.13,0,0,0,18.3,24.2Zm.63-.65a.47.47,0,0,0-.09-.27.12.12,0,0,0-.09,0h-.09a.26.26,0,0,0,0,.18,1.61,1.61,0,0,0,0,.31c-.15.06-.22.1-.22.13s0,0,.09,0h0c.06,0,.09-.06.09-.18C18.83,23.72,18.92,23.67,18.92,23.55Zm-.25,2s.07,0,.13-.09.09-.1.09-.13a.14.14,0,0,0,0-.09h0l-.13,0c-.06.06-.09.1-.09.13a.11.11,0,0,0,0,.09A0,0,0,0,0,18.67,25.57Z"/><path d="M56.57,5.92h.62Q58,6,59,6a6.75,6.75,0,0,1-.23.9c-.09.28-.18.58-.28.9a7.08,7.08,0,0,1-.43.79,4.39,4.39,0,0,0-.39.74A10.49,10.49,0,0,0,57.16,11a8.09,8.09,0,0,1-.55,1.62c-.37,1-.81,2-1.32,3.15s-1,2.13-1.32,3.06a9.44,9.44,0,0,0-.51,1.55,11,11,0,0,1-.6,1.78q-.78,1.93-1.53,3.74t-1.67,4.23c-.18.44-.31.77-.39,1a.69.69,0,0,1-.36.44,1.82,1.82,0,0,1-.73.1l-2.81,0a.32.32,0,0,1-.13,0,1.19,1.19,0,0,1-.61-.14,1,1,0,0,1-.48-.51c-.11-.25-.27-.66-.47-1.22-.08-.32-.16-.65-.23-1a6.87,6.87,0,0,0-.23-.84q-.63-1.81-1.23-3.34t-1.27-3.43c-.09-.24-.19-.55-.32-.93s-.25-.75-.38-1.11l-.34-.93c-.1-.27-.16-.4-.19-.4h0c-.15,0-.28.1-.4.3a5.12,5.12,0,0,0-.43.88c-.14.35-.27.72-.39,1.12s-.24.74-.37,1q-.64,1.75-1.28,3.33T35.2,28.15c-.09.27-.2.59-.34,1s-.27.74-.41,1.07-.26.63-.37.88-.19.39-.25.42l-.57,0-1.46.07-1.45.07-.66,0a1.61,1.61,0,0,1-.69-.87,16,16,0,0,1-.66-1.68q-.31-1-.61-1.95t-.55-1.75c-.45-1.33-.89-2.49-1.33-3.5S25,20,24.72,19.19a11.9,11.9,0,0,1-.52-1.75,10.24,10.24,0,0,0-.48-1.62q-.34-.88-.66-1.64c-.21-.5-.4-1-.57-1.51a5.15,5.15,0,0,1-.25-.91,4.89,4.89,0,0,0-.25-.91,2.18,2.18,0,0,0-.39-.67,2.5,2.5,0,0,1-.39-.62,5.87,5.87,0,0,1-.27-1,8.85,8.85,0,0,0-.27-1.08,9.61,9.61,0,0,0-.38-1,3,3,0,0,0-.56-.82v0c0-.15.09-.22.27-.22a1.09,1.09,0,0,0,.74.19h.44l2.07-.19c.76-.08,1.5-.14,2.2-.19h.35A2.16,2.16,0,0,1,27,5.53l.17.49c.08.35.17.74.27,1.17s.19.84.29,1.22a4.59,4.59,0,0,0,.23.75q.38,1.11.93,2.37t1.06,2.55q.51,1.29.91,2.5a15.13,15.13,0,0,1,.56,2.19.85.85,0,0,0,.69-.5c.17-.31.3-.56.39-.77a4.75,4.75,0,0,0,.28-.9,4.84,4.84,0,0,1,.28-.9q.78-2,1.53-4t1.67-4.51a2.75,2.75,0,0,1,.18-.46,5.31,5.31,0,0,0,.23-.55c.06-.17.11-.32.14-.44a.12.12,0,0,0,0-.09h0a1.61,1.61,0,0,1,.75-.16h.35q.39,0,.88.06l1.34.11c.45,0,.81.06,1.08.06,0,0,0,0,0,0s0,.08.09.13.12.13.17.13l0,0a.25.25,0,0,1,.22-.13A.37.37,0,0,1,42,6a4.94,4.94,0,0,1,.52.93,9.56,9.56,0,0,1,.44,1.22c.13.43.23.75.32,1l.91,2.46q.49,1.31,1,2.65T46,16.86c.28.85.52,1.65.71,2.39a.73.73,0,0,0,.59-.74,2.69,2.69,0,0,1,.23-1.05q.78-1.84,1.67-3.88T51,9.22c.09-.23.19-.52.3-.88l.32-1a8,8,0,0,1,.34-.9,1.13,1.13,0,0,1,.4-.52l3.08,0C55.81,5.92,56.19,5.91,56.57,5.92ZM22.11,8.32s.07,0,.13-.09a.14.14,0,0,0,.09-.13.13.13,0,0,0,0-.09h0a.39.39,0,0,0-.17,0,.25.25,0,0,0-.09.13.15.15,0,0,0,.13.13Zm.26.53s.08,0,.13-.09a.28.28,0,0,0,.09-.13.14.14,0,0,0,0-.09h0a.36.36,0,0,0-.18,0c-.06.06-.09.1-.09.13a.12.12,0,0,0,0,.09A.12.12,0,0,0,22.37,8.85Zm.71,2.56s.08,0,.13-.08.09-.06.09-.09a.14.14,0,0,0,0-.09,0,0,0,0,0,0,0,.25.25,0,0,0-.13.08.28.28,0,0,0-.09.13.14.14,0,0,0,0,.09ZM23.26,8a.29.29,0,0,0-.13,0A.26.26,0,0,0,23,8.2a.14.14,0,0,0,0,.09,0,0,0,0,0,0,0s.07,0,.13-.09a.14.14,0,0,0,.09-.13.13.13,0,0,0,0-.09Zm.09,2.91s.07,0,.13-.09.09-.1.09-.13a.13.13,0,0,0,0-.09h0a.3.3,0,0,0-.13,0c-.09.06-.13.1-.13.13a.13.13,0,0,0,0,.09A.12.12,0,0,0,23.35,10.93Zm0-1.58a.25.25,0,0,0,.18-.09c.06,0,.09-.06.09-.09a.14.14,0,0,0,0-.09,0,0,0,0,0,0,0s-.07,0-.13.09-.13.1-.13.13a.13.13,0,0,0,0,.09Zm.49,2.34A.24.24,0,0,0,24,11.6c.06,0,.09-.06.09-.09a.12.12,0,0,0,0-.09.12.12,0,0,0-.09,0s-.08,0-.13.09-.09.1-.09.13a.13.13,0,0,0,0,.09Zm.8,2.34a.41.41,0,0,0-.45.26c-.06.26-.12.51-.19.74h.79c-.18.17-.27.31-.27.39s0,0,.09,0a.14.14,0,0,0,.09,0,.47.47,0,0,0,.27-.09.56.56,0,0,0,.31-.26c0-.09-.16-.14-.48-.14V14Zm-.35-6.25-.13,0c-.06.06-.09.1-.09.13a.13.13,0,0,0,0,.09.13.13,0,0,0,.09,0s.07,0,.13-.09.09-.06.09-.09a.14.14,0,0,0,0-.09A.12.12,0,0,0,24.27,7.78Zm0-.53s-.07,0-.13.09-.09.1-.09.13a.12.12,0,0,0,0,.09h0a.24.24,0,0,0,.18-.09c.06,0,.09-.06.09-.09a.14.14,0,0,0,0-.09A.13.13,0,0,0,24.28,7.25Zm.26,9.38a.27.27,0,0,0,.18-.08q.09,0,.09-.09a.15.15,0,0,0-.13-.13.29.29,0,0,0-.13,0c-.06.06-.09.1-.09.13a.14.14,0,0,0,0,.09A0,0,0,0,0,24.54,16.63Zm.24-4.18a.36.36,0,0,0-.17,0c-.06.06-.09.1-.09.13a.15.15,0,0,0,0,.09,0,0,0,0,0,0,0,.48.48,0,0,0,.18-.09c.06-.06.09-.1.09-.13a.13.13,0,0,0,0-.09Zm0-1.58s-.08,0-.13.09-.09.1-.09.13a.14.14,0,0,0,0,.09s0,0,0,0a.5.5,0,0,0,.18-.08c.06-.06.09-.1.09-.13a.12.12,0,0,0,0-.09A.12.12,0,0,0,24.76,10.87ZM24.81,7s-.07,0-.13.09-.09.1-.09.13a.14.14,0,0,0,0,.09h0a.48.48,0,0,0,.18-.09c.06,0,.09-.06.09-.09a.13.13,0,0,0,0-.09A.12.12,0,0,0,24.81,7Zm.36,5.68s0,0,0,0a.52.52,0,0,1-.07.22.84.84,0,0,1-.16.22.23.23,0,0,1-.13.08h0a.59.59,0,0,0,.26,0,1.65,1.65,0,0,0,.35,0c.27-.08.4-.15.4-.21v0l-.3-.45-.09-.09s-.06,0-.11.07l-.24.19Zm.67-.82v-.09a.41.41,0,0,0,0-.18.56.56,0,0,0-.22,0h0c-.12,0-.19.17-.23.44-.11-.32-.21-.49-.3-.49h0a.34.34,0,0,0-.14.3.5.5,0,0,0,.13.36c0,.06,0,.09,0,.09s.19-.08.31-.26C25.61,12,25.78,11.94,25.84,11.85Zm-.78-4.06a.33.33,0,0,0-.13,0c-.06.06-.09.1-.09.13a.14.14,0,0,0,0,.09s0,0,0,0A.26.26,0,0,0,25.11,8c.06,0,.09-.06.09-.09a.14.14,0,0,0,0-.09A.14.14,0,0,0,25.07,7.79Zm0,9.11s.07,0,.13-.09.09-.1.09-.13a.13.13,0,0,0,0-.09h0a.33.33,0,0,0-.13,0c-.06.06-.09.1-.09.13a.13.13,0,0,0,0,.09A0,0,0,0,0,25.07,16.9Zm1.84-2.48,0,0a.79.79,0,0,0,.19-.57.6.6,0,0,0-.26-.53.43.43,0,0,0-.17,0c-.18,0-.47.19-.89.56h-.09c-.06,0-.09,0-.09,0a1.61,1.61,0,0,0-.09.22,1.56,1.56,0,0,0-.44-.18q-.09,0-.09,0h0a.62.62,0,0,0,.21.4.63.63,0,0,0,.39.23v0s0,0,0-.09a1.54,1.54,0,0,0-.17-.44h0c.15,0,.22-.08.23-.26h.79Q26.73,14.41,26.91,14.42Zm-1.61-4a.33.33,0,0,0-.13,0c-.06.06-.09.1-.09.13a.13.13,0,0,0,0,.09s0,0,0,0,.08,0,.13-.09.09-.1.09-.13a.13.13,0,0,0,0-.09Zm.26,6a.24.24,0,0,0,.18-.09c.06,0,.09-.06.09-.09a.13.13,0,0,0,0-.09,0,0,0,0,0,0,0,.19.19,0,0,0-.13,0c-.09.06-.13.11-.13.17a.14.14,0,0,0,0,.09Zm.7-5.76a1,1,0,0,0-.35.08c-.21.06-.31.11-.31.17v0a.18.18,0,0,0,.13,0,1.05,1.05,0,0,0,.35-.08c.2-.06.31-.11.31-.17v0A.18.18,0,0,0,26.26,10.62Zm0-.75a.82.82,0,0,0-.22,0c-.12.05-.18.11-.18.17v0a.17.17,0,0,0,.13,0,.42.42,0,0,0,.22-.08c.15,0,.22-.07.22-.13a0,0,0,0,0,0,0A.19.19,0,0,0,26.27,9.87Zm0,7.44a.37.37,0,0,0,.08.27.13.13,0,0,0,.09,0,.31.31,0,0,0,.13,0s0-.06,0-.18a1,1,0,0,0,0-.26h.27c0-.27-.05-.43-.17-.49a.82.82,0,0,0-.22,0H26.3a.26.26,0,0,0-.13.22c0,.12.13.22.39.31C26.35,17.14,26.25,17.2,26.25,17.31ZM26.56,20a.44.44,0,0,0,.18-.09c.06,0,.09-.06.09-.08a.15.15,0,0,0,0-.09.13.13,0,0,0-.09,0s-.07,0-.13.09-.09.1-.09.13a.12.12,0,0,0,0,.09Zm.07-4.62a.42.42,0,0,0,.18-.09c.06-.06.09-.1.09-.13a.14.14,0,0,0,0-.09h0a.39.39,0,0,0-.18,0c-.06.06-.09.1-.09.13a.13.13,0,0,0,0,.09A0,0,0,0,0,26.63,15.38Zm.21-2.64a.38.38,0,0,0-.17,0c-.06.06-.09.1-.09.13a.13.13,0,0,0,0,.09,0,0,0,0,0,0,0,.46.46,0,0,0,.18-.08c.06-.06.09-.1.09-.13a.13.13,0,0,0,0-.09Zm0-1.85s-.07,0-.13.09-.09.1-.09.13a.13.13,0,0,0,0,.09,0,0,0,0,0,0,0,.46.46,0,0,0,.18-.08c.06-.06.09-.1.09-.13a.16.16,0,0,0-.13-.13Zm-.08,2.73q.09,0,.13.18h-.26A.17.17,0,0,1,26.74,13.62Zm.14-3.48a.39.39,0,0,0-.18,0c-.06.06-.09.1-.09.13a.13.13,0,0,0,0,.09,0,0,0,0,0,0,0,.26.26,0,0,0,.18-.08.14.14,0,0,0,.09-.13.13.13,0,0,0,0-.09Zm.2,1.28a.71.71,0,0,0-.27.09c-.12.06-.18.11-.18.17v0h0a1,1,0,0,0,.31-.08c.12,0,.18-.07.18-.13v0A.12.12,0,0,0,27.08,11.43Zm-.25,7.83a.47.47,0,0,0,.18-.08c.06-.06.09-.1.09-.13a.13.13,0,0,0,0-.09h0a.36.36,0,0,0-.18,0,.26.26,0,0,0-.09.13.14.14,0,0,0,0,.09S26.81,19.26,26.84,19.26Zm.27,2.29a.26.26,0,0,1,.22.13.12.12,0,0,0,.09,0s.06-.06.09-.17a.19.19,0,0,0-.22-.22.24.24,0,0,0-.27.22Zm.23-.48A.63.63,0,0,0,27.6,21c.15-.06.22-.12.22-.17a0,0,0,0,0,0,0h0a1.11,1.11,0,0,0-.27,0c-.15.06-.22.12-.22.17v0A.12.12,0,0,0,27.34,21.07ZM28,14.61a.44.44,0,0,0,.22-.09c.15,0,.22-.07.22-.13a0,0,0,0,0,0,0,.18.18,0,0,0-.13,0,.71.71,0,0,0-.22,0c-.12.06-.18.11-.18.17v0A.19.19,0,0,0,28,14.61Zm.41,5.2s.07,0,.13-.09.09-.1.09-.13a.15.15,0,0,0-.13-.13s-.07,0-.13.09-.09.1-.09.13a.15.15,0,0,0,.13.13Zm.44,3.09a.25.25,0,0,0,.18-.08q.09,0,.09-.09A.15.15,0,0,0,29,22.6a.29.29,0,0,0-.13,0c-.06.06-.09.1-.09.13a.13.13,0,0,0,0,.09A0,0,0,0,0,28.85,22.9Zm0-2.6a.48.48,0,0,0,.18-.08c.06,0,.09-.06.09-.09a.14.14,0,0,0,0-.09A.13.13,0,0,0,29,20s-.07,0-.13.08-.09.1-.09.13a.12.12,0,0,0,0,.09Zm1-.56a.24.24,0,0,0,.27-.21H30a.25.25,0,0,1-.22-.13.13.13,0,0,0-.09,0c-.06,0-.1.06-.13.17S29.69,19.74,29.87,19.74Zm.25.93a.79.79,0,0,0,0-.27.12.12,0,0,0-.09,0c-.06,0-.1.07-.13.22v.09a.57.57,0,0,0,.08.31A.13.13,0,0,0,30,21s.06-.07.09-.22Zm.58-.35a.48.48,0,0,0,.18-.08c.06,0,.09-.06.09-.09a.14.14,0,0,0,0-.09.13.13,0,0,0-.09,0s-.07,0-.13.08-.09.1-.09.13a.13.13,0,0,0,0,.09Zm.81,1.77a.35.35,0,0,0-.26.09.14.14,0,0,0-.09.13s0,0,0,0,.06.09.17.09l.27,0c.06.12.1.18.13.18s0,0,0-.09a.08.08,0,0,0-.09-.09h-.09C31.64,22.21,31.59,22.1,31.5,22.1Zm.08,6.78a.25.25,0,0,0,.18-.09c.06,0,.09-.05.09-.08a.13.13,0,0,0,0-.09s0,0,0,0-.08,0-.13.09-.13.1-.13.13a.14.14,0,0,0,0,.09Zm.36-3.61a.66.66,0,0,0,.27-.09c.15-.05.22-.11.22-.17a0,0,0,0,0,0,0h0A1.28,1.28,0,0,0,32,25c-.12.06-.18.12-.18.17v0A.13.13,0,0,0,31.94,25.28Zm.19-4.18a.4.4,0,0,0-.18,0c-.06.06-.09.1-.09.13a.13.13,0,0,0,0,.09.12.12,0,0,0,.09,0s.08,0,.13-.09a.28.28,0,0,0,.09-.13.14.14,0,0,0,0-.09Zm.27,5.47a.27.27,0,0,0,.18-.09c.06,0,.09-.06.09-.09a.13.13,0,0,0,0-.09.14.14,0,0,0-.09,0s-.07,0-.13.09-.09.1-.09.13a.13.13,0,0,0,0,.09Zm0-2.07a.26.26,0,0,0,.18-.09c.06,0,.09-.06.09-.09a.13.13,0,0,0,0-.09.13.13,0,0,0-.09,0s-.08,0-.13.09-.09.1-.09.13a.12.12,0,0,0,0,.09Zm.14-3.56h0c-.06,0-.09.05-.09.17a.17.17,0,0,0,.13.18h0c.06,0,.09-.06.09-.17S32.67,21,32.58,20.93Zm.23-.61a.37.37,0,0,0-.27.09.14.14,0,0,0,0,.09.12.12,0,0,0,0,.09c0,.06.06.09.17.09a1.11,1.11,0,0,0,.26,0c0,.12.06.18.09.18s.06,0,.09-.09v0s0,0-.09,0H33C33,20.42,32.92,20.32,32.81,20.32Zm.18,9,0-.09v0c0-.06-.06-.09-.17-.09s-.1-.17-.13-.17,0,0,0,0v0a.08.08,0,0,0,.09.09h.09C32.88,29.27,32.92,29.35,33,29.35ZM33,26a.13.13,0,0,0,.09,0v-.09s0,0-.09,0H32.9c-.06-.12-.1-.17-.13-.17s0,0,0,0v0a.08.08,0,0,0,.09.09h.09C32.93,25.89,33,26,33,26Zm0-1.72a.48.48,0,0,0,.18-.09q.09,0,.09-.09a.12.12,0,0,0,0-.09.13.13,0,0,0-.09,0S33,24,33,24a.26.26,0,0,0-.09.13.13.13,0,0,0,0,.09Zm.17-2.64s-.07,0-.13.09-.09.1-.09.13a.13.13,0,0,0,0,.09s0,0,0,0a.47.47,0,0,0,.18-.08c.06-.06.09-.1.09-.13a.13.13,0,0,0,0-.09A.13.13,0,0,0,33.14,21.6Zm1,1.47,0,0H34c-.06,0-.09.06-.09.17a1.48,1.48,0,0,0-.34-.44.45.45,0,0,0-.26-.09h-.09a.38.38,0,0,0-.22.26V23a.87.87,0,0,0,.17.44q0,.26.13.27l0,0a.47.47,0,0,0,.27-.08,1.83,1.83,0,0,0,.27-.21.4.4,0,0,0,0-.18v-.09C34.1,23.17,34.17,23.12,34.18,23.07Zm-1,5.1s.07,0,.13-.09.09-.1.09-.13a.13.13,0,0,0,0-.09s0,0,0,0-.08,0-.13.09-.09.1-.09.13a.13.13,0,0,0,0,.09S33.15,28.16,33.18,28.16Zm.11-1.5h0c-.06,0-.09.06-.09.18s0,.1.13.13a0,0,0,0,0,0,0s0-.06,0-.17A.18.18,0,0,0,33.29,26.66Zm-.08-3.3c0-.06,0-.09,0-.09h.09a.13.13,0,0,1,0,.09s-.06.06-.18.09Zm.25.88a.24.24,0,0,0,.18-.09c.06,0,.09-.06.09-.09a.14.14,0,0,0,0-.09,0,0,0,0,0,0,0s-.07,0-.13.09-.13.1-.13.13a.13.13,0,0,0,0,.09Zm.31-3.08a.31.31,0,0,0-.31.21.46.46,0,0,1,.35.14c0,.06,0,.09,0,.09s.1-.07.14-.22A.2.2,0,0,0,33.76,21.17Zm-.06,7s.08,0,.13-.09.09-.1.09-.13a.13.13,0,0,0,0-.09s0,0,0,0-.07,0-.13.09-.13.1-.13.13a.13.13,0,0,0,0,.09A.12.12,0,0,0,33.7,28.17ZM34.07,24s0,0,0,0v.09c0,.06.06.09.18.09s.1.18.13.18,0,0,0-.09a.08.08,0,0,0-.09-.09H34.2C34.14,24.11,34.1,24,34.07,24Zm.23,2.42,0,0c.06,0,.09-.06.09-.17s0-.12-.13-.18h0c-.06,0-.09.05-.09.17S34.21,26.43,34.3,26.46Zm.24-4a.25.25,0,0,0,.18-.09q.09,0,.09-.09a.12.12,0,0,0,0-.09.13.13,0,0,0-.09,0s-.08,0-.13.09-.09.1-.09.13a.13.13,0,0,0,0,.09Zm.71,2.78a2.27,2.27,0,0,0-.19-.4.59.59,0,0,0-.2-.22h0c-.06,0-.09.13-.09.39a.84.84,0,0,0,.21.36c.12.12.2.18.26.18h0Zm-.46-1.64s0,0,.09,0h0c.06,0,.09-.06.09-.17s.18-.06.18-.09a.14.14,0,0,0,0-.09h-.09s0,0,0,.09v.09C34.86,23.53,34.78,23.57,34.78,23.6Zm.41-1.18a.29.29,0,0,0-.13,0,.25.25,0,0,0-.09.17.13.13,0,0,0,0,.09h0a.48.48,0,0,0,.18-.09c.06,0,.09-.06.09-.09a.12.12,0,0,0,0-.09A.12.12,0,0,0,35.2,22.42Zm.24,1.9a.25.25,0,0,0,.18,0,.13.13,0,0,0,0-.09.28.28,0,0,0,0-.13.35.35,0,0,0-.26-.09c-.15,0-.27.1-.35.3A2.77,2.77,0,0,0,35.43,24.32Zm-.09-3.13a.38.38,0,0,0,.18-.08.35.35,0,0,0,0-.13.13.13,0,0,0,0-.09h0l-.13,0c-.06.06-.09.1-.09.13a.13.13,0,0,0,0,.09S35.32,21.19,35.35,21.19Zm-.08-.88c0,.12,0,.19.08.22a.12.12,0,0,0,.09,0,.26.26,0,0,0,.18-.09.43.43,0,0,0,.14-.31v0c0-.15-.17-.24-.44-.27A2.84,2.84,0,0,0,35.27,20.31Zm.24,4.49a.26.26,0,0,0,.18-.08c.06,0,.09-.06.09-.09a.14.14,0,0,0,0-.09s0,0,0,0-.07,0-.13.09-.13.1-.13.13a.12.12,0,0,0,0,.09Zm.38-1.67h0c.06,0,.09-.06.09-.18s0-.12-.13-.18h0c-.06,0-.09.06-.09.17A.17.17,0,0,0,35.89,23.14Zm2.76-14s.08,0,.13-.09a.28.28,0,0,0,.09-.13.14.14,0,0,0,0-.09h0a.36.36,0,0,0-.18,0c-.06.06-.09.1-.09.13a.16.16,0,0,0,.13.14Zm2.33.3s.08,0,.13-.09a.26.26,0,0,0,.09-.13.14.14,0,0,0,0-.09.13.13,0,0,0-.09,0s-.07,0-.13.09-.09.1-.09.13a.13.13,0,0,0,0,.09A.12.12,0,0,0,41,9.39Zm.15,4.88a.42.42,0,0,0,.18-.08c.06,0,.09-.06.09-.09a.13.13,0,0,0,0-.09.12.12,0,0,0-.09,0,.27.27,0,0,0-.13.08c-.06.06-.09.1-.09.13a.13.13,0,0,0,0,.09Zm.3-2.06a.47.47,0,0,0,.17-.09c.06,0,.09-.06.09-.09a.12.12,0,0,0,0-.09.13.13,0,0,0-.09,0s-.07,0-.13.09-.09.1-.09.13a.14.14,0,0,0,0,.09Zm.37-.92s0,0,0,0,0-.06,0-.17a.24.24,0,0,0-.09-.18H41.7s0,.06,0,.18S41.7,11.26,41.79,11.29Zm.12,3.79S42,15,42,15a.26.26,0,0,0,.09-.13.14.14,0,0,0,0-.09h0a.34.34,0,0,0-.13,0c-.09.06-.13.1-.13.13a.13.13,0,0,0,0,.09A.12.12,0,0,0,41.91,15.08Zm.35,9.29a.24.24,0,0,0,.18-.09c.06,0,.09-.06.09-.09a.13.13,0,0,0,0-.09.12.12,0,0,0-.09,0s-.08,0-.13.09a.28.28,0,0,0-.09.13.13.13,0,0,0,0,.09Zm.33-13.25s-.08,0-.13.09-.09.1-.09.13a.14.14,0,0,0,0,.09.13.13,0,0,0,.09,0s.07,0,.13-.09.09-.1.09-.13a.17.17,0,0,0-.13-.13Zm0,14s.08,0,.13-.09.09-.06.09-.09a.13.13,0,0,0,0-.09.13.13,0,0,0-.09,0,.32.32,0,0,0-.13,0c-.06.06-.09.1-.09.13a.13.13,0,0,0,0,.09A.12.12,0,0,0,42.55,25.17Zm.48.62s0,0,.09,0h0c.06,0,.09-.06.09-.17.17.18.3.27.39.27s0,0,0-.09v-.09a.74.74,0,0,0,0-.26.65.65,0,0,0-.21-.31h0c-.09,0-.13.16-.14.48C43.1,25.72,43,25.76,43,25.79Zm1.3,1.3h.09a1.17,1.17,0,0,0,.31,0,.14.14,0,0,0,.09,0,.18.18,0,0,0,.13,0c.06,0,.09-.16.09-.39h.09a.14.14,0,0,0,.13-.09.4.4,0,0,1,0-.18.16.16,0,0,0,.18-.17.74.74,0,0,1,.09-.35c.12,0,.18-.05.18-.08v-.09a.24.24,0,0,0-.17-.09.49.49,0,0,0-.44-.27h0c-.2,0-.31.08-.31.26h-.27c0-.12-.06-.17-.09-.18h0c-.09.06-.13.11-.13.17s-.18.1-.18.13,0,0,.09,0a.08.08,0,0,0,.09-.09v-.09h.26c0,.12.06.18.09.18a.12.12,0,0,0,.09,0,.15.15,0,0,0,.09-.13h.79V26c-.29,0-.44,0-.44.08a0,0,0,0,0,0,0l.13.39h0c-.15,0-.22.09-.23.26a4,4,0,0,1-.53-.05c-.17,0-.26-.06-.26-.18a.35.35,0,0,0,.22-.13c.06-.06.09-.1.09-.13s0,0,0,0H44.3a.76.76,0,0,0-.57.21.42.42,0,0,0-.18.35.88.88,0,0,0,.17.44,2.48,2.48,0,0,1,0,.48v.18a.14.14,0,0,0,0,.09.28.28,0,0,0,.26.31.91.91,0,0,1,.07-.39l.11-.22s0,0,0-.09v0a2,2,0,0,0-.21-.31A.76.76,0,0,1,44.33,27.09ZM43.85,27h0s.06.06.09.18h-.26C43.71,27.16,43.76,27.1,43.85,27Zm0-3.34h0c-.06,0-.09.06-.09.17s0,.1.13.13l0,0C44,24,44,24,44,23.87S44,23.75,43.9,23.69Zm.34.93s-.07,0-.13.09-.13.1-.13.13a.11.11,0,0,0,0,.09h0a.24.24,0,0,0,.18-.08c.06,0,.09-.06.09-.09a.13.13,0,0,0,0-.09A0,0,0,0,0,44.23,24.62Zm.14-.35s0,0,.09,0a.08.08,0,0,0,.09-.09v-.09c.15-.05.22-.1.22-.13a0,0,0,0,0,0,0h-.09c-.06,0-.09.06-.09.17S44.37,24.24,44.37,24.27Zm.15,4.8A.24.24,0,0,0,44.7,29c.06,0,.09-.05.09-.08a.12.12,0,0,0,0-.09.12.12,0,0,0-.09,0s-.08,0-.13.09-.09.1-.09.13a.13.13,0,0,0,0,.09Zm.33-1.27a.66.66,0,0,0,.26-.09c.15-.06.22-.11.22-.17a0,0,0,0,0,0,0h0a1.41,1.41,0,0,0-.31,0c-.12.06-.18.11-.18.17v0A.12.12,0,0,0,44.85,27.8Zm.93-3.16a.65.65,0,0,0-.27.08c-.12.06-.18.11-.18.17v0h0a1,1,0,0,0,.31-.08c.12,0,.18-.07.18-.13v0A.12.12,0,0,0,45.77,24.65Zm3.94,1.42s0,0,0,0a.28.28,0,0,0,.18-.21v0a.3.3,0,0,0-.09-.22h0c-.09,0-.21.07-.35.21v-1c.12,0,.18-.06.18-.09v-.09a.25.25,0,0,0-.17-.09v-.27a1.21,1.21,0,0,0-.8.52.79.79,0,0,0-.14.39.61.61,0,0,0,.13.35,1.21,1.21,0,0,0-.85.69.77.77,0,0,0,0,.26.86.86,0,0,0,.34.62H48a.79.79,0,0,0-.57.17,1.21,1.21,0,0,1-.57.3,5.42,5.42,0,0,1,.05-.66.32.32,0,0,0-.3-.36v-.26c.21,0,.31-.05.31-.17a.5.5,0,0,0-.08-.27.18.18,0,0,0-.13,0h0c-.06,0-.09.1-.09.21a1.32,1.32,0,0,0,0,.27H46.5q-.08,0-.09,0a2.13,2.13,0,0,0-.09.22c-.12,0-.18.06-.18.09s0,0,.09,0a0,0,0,0,0,0,0s0,0,0-.09V26.5h.27a1.27,1.27,0,0,1,0,.31.89.89,0,0,1-.14.48.51.51,0,0,1-.49.21h-.17c0-.17,0-.34,0-.48a.27.27,0,0,0-.24-.27.65.65,0,0,0-.18.39c0,.18.14.3.44.36a.36.36,0,0,0,0,.18s0,0,.09,0l.22.09a1.57,1.57,0,0,1,.28.13.47.47,0,0,1,.19.35.65.65,0,0,0,.21.51.73.73,0,0,0,.39.12,1.13,1.13,0,0,0,.4-.08h.31a0,0,0,0,0,0,0l0,0a.82.82,0,0,0,0,.22.49.49,0,0,0,.09.17,0,0,0,0,0,0,0l0,0a.65.65,0,0,0,.14-.39.47.47,0,0,0-.08-.27,2.24,2.24,0,0,1-.25-.89.48.48,0,0,0,.31.18l0,0,.4-.13c.06.15.1.22.13.22s0,0,0-.08v0c0-.06-.06-.09-.17-.09.18-.17.27-.28.27-.3v0a.51.51,0,0,0-.2-.09,2,2,0,0,0-.35-.07.27.27,0,0,1-.24-.24h.13a.4.4,0,0,0,.35-.13.34.34,0,0,1,.31-.13c0,.12.06.17.09.18a.13.13,0,0,0,.09,0,.14.14,0,0,0,.09-.13c.12-.06.18-.1.18-.13s0,0,0,0h0c-.06,0-.09,0-.09.09v.09h-.26a.75.75,0,0,0,0-.22.36.36,0,0,0,0-.18,2.2,2.2,0,0,0-.35-.23.41.41,0,0,1-.22-.22c0-.06.11-.13.31-.21,0,.12.05.18.08.18a.14.14,0,0,0,.09,0,.15.15,0,0,0,.09-.13h.53C49.54,26,49.63,26.07,49.71,26.07Zm-4.16,4.34a.48.48,0,0,0,.18-.09c.06-.06.09-.1.09-.13a.15.15,0,0,0-.13-.13s-.07,0-.13.09-.09.1-.09.13a.13.13,0,0,0,0,.09A0,0,0,0,0,45.56,30.41Zm0-1.72a.47.47,0,0,0,.09.26s0,0,0,0,.1-.05.13-.17a.87.87,0,0,0-.08-.4.13.13,0,0,0-.09,0s-.06.06-.09.18Zm.55,1.46s.07,0,.13-.09.09-.1.09-.13a.13.13,0,0,0,0-.09h0a.29.29,0,0,0-.13,0C46,29.95,46,30,46,30a.14.14,0,0,0,0,.09A.12.12,0,0,0,46.09,30.16Zm.57-8.89a2.77,2.77,0,0,0-.19-.4.59.59,0,0,0-.2-.22h0c-.06,0-.09.13-.09.39a.85.85,0,0,0,.21.36c.12.12.2.18.26.18h0Zm-.27,9.51,0,0c.06,0,.09-.06.09-.17s0-.12-.13-.18h0q-.09,0-.09.18C46.26,30.7,46.3,30.74,46.39,30.78Zm.23-.61s.07,0,.13-.09.09-.1.09-.13a.11.11,0,0,0,0-.09h0a.38.38,0,0,0-.17,0c-.06.06-.09.1-.09.13a.13.13,0,0,0,0,.09A.13.13,0,0,0,46.62,30.16Zm0-2.51a0,0,0,0,0,0,0h0a.08.08,0,0,0,.09-.09v-.09C46.71,27.58,46.66,27.62,46.65,27.65Zm.12.84s0-.07.09-.13.1-.09.13-.09a.12.12,0,0,1,.09,0,.13.13,0,0,1,0,.09s0,.06-.09.09a.25.25,0,0,1-.18.09h0A.13.13,0,0,1,46.77,28.49Zm.58-6.69a.66.66,0,0,0-.27.09c-.12.06-.18.12-.18.17v0a.13.13,0,0,0,.09,0,.63.63,0,0,0,.27-.08c.15-.06.22-.12.22-.17s0,0,0,0A.12.12,0,0,0,47.36,21.81Zm-.11,1.63s.08,0,.13-.09.09-.1.09-.13a.13.13,0,0,0,0-.09h0a.47.47,0,0,0-.18,0c-.06.06-.09.1-.09.13a.13.13,0,0,0,0,.09A.15.15,0,0,0,47.24,23.44Zm.15,1.94a.55.55,0,0,0-.08-.31.13.13,0,0,0-.09,0s-.06.06-.09.17v.13a.48.48,0,0,0,.08.27c0,.06,0,.09,0,.09s.1-.08.13-.22Zm-.25,4.8h0v0a1,1,0,0,0,.22-.17,1,1,0,0,0,.18-.22v0a.88.88,0,0,0-.27.17A1.21,1.21,0,0,0,47.14,30.17Zm.23-9.38-.13,0c-.06.06-.09.1-.09.13a.12.12,0,0,0,0,.09.14.14,0,0,0,.09,0s.07,0,.13-.09.09-.06.09-.08a.13.13,0,0,0,0-.09A.12.12,0,0,0,47.37,20.79Zm.5,1.81-.13,0a.25.25,0,0,0-.09.17.13.13,0,0,0,0,.09h0a.44.44,0,0,0,.18-.09c.06,0,.09-.06.09-.08a.12.12,0,0,0,0-.09A.12.12,0,0,0,47.87,22.61Zm-.08,5.2c-.09,0-.13,0-.13,0a.13.13,0,0,1,0-.09s0,0,0,0,.07.06.13.18Zm.35-5.72s-.08,0-.13.09-.09.1-.09.13a.12.12,0,0,0,0,.09h0s.08,0,.13-.09.09-.06.09-.09a.13.13,0,0,0,0-.09A0,0,0,0,0,48.15,22.08Zm.14,8.06c0,.12,0,.18.09.18a.12.12,0,0,0,.09,0,.13.13,0,0,0,.09,0,.35.35,0,0,0,.09-.26c0-.12-.1-.18-.31-.18,0-.12-.06-.18-.08-.18s0,0,0,0a.13.13,0,0,0,0,.09s0,0,.09,0h.09A1.47,1.47,0,0,0,48.29,30.14Zm.38-7.79s-.08,0-.13.09-.13.1-.13.13a.13.13,0,0,0,0,.09h0a.24.24,0,0,0,.18-.09c.06,0,.09-.06.09-.09a.13.13,0,0,0,0-.09A0,0,0,0,0,48.67,22.35Zm0,6.52a.27.27,0,0,0,.18-.09q.09,0,.09-.09a.12.12,0,0,0,0-.09.12.12,0,0,0-.09,0s-.08,0-.13.09-.09.1-.09.13a.15.15,0,0,0,0,.09ZM48.78,24s.07,0,.13-.08.09-.1.09-.13a.13.13,0,0,0,0-.09h0a.36.36,0,0,0-.18,0c-.06.06-.09.1-.09.13a.15.15,0,0,0,0,.09A.13.13,0,0,0,48.78,24Zm.1-1.1a.29.29,0,0,0-.13,0c-.06.06-.09.1-.09.13a.14.14,0,0,0,0,.09.12.12,0,0,0,.09,0,.25.25,0,0,0,.13-.08q.09,0,.09-.09a.13.13,0,0,0,0-.09A.12.12,0,0,0,48.88,22.89Zm0,2.64a.18.18,0,0,1,0,.13v.09h-.26v-.26A.8.8,0,0,0,48.89,25.53Zm.32-3.92a.45.45,0,0,0-.18,0c-.06.06-.09.1-.09.13a.13.13,0,0,0,0,.09.14.14,0,0,0,.09,0s.08,0,.13-.09.09-.1.09-.13a.14.14,0,0,0,0-.09Zm.13,3a0,0,0,0,1,0,0s.06-.06.18-.09v.26C49.41,24.74,49.37,24.7,49.34,24.61ZM49.45,17h0c-.06,0-.09.06-.09.17a.17.17,0,0,0,.13.18h0c.06,0,.09-.06.09-.17S49.54,17.1,49.45,17Zm.09,6h.09s0,0,0,0,.09-.06.09-.18.18-.1.18-.13a.14.14,0,0,0,0-.09h-.09s0,0,0,.13v.09C49.61,23,49.54,23,49.54,23.07Zm.21,3.75a.48.48,0,0,0,.18-.09c.06,0,.09-.06.09-.09a.13.13,0,0,0,0-.09.13.13,0,0,0-.09,0s-.07,0-.13.09-.09.1-.09.13a.13.13,0,0,0,0,.09Zm0-1.54a.26.26,0,0,0,.18-.09q.09,0,.09-.09A.13.13,0,0,0,50,25a.14.14,0,0,0-.09,0l-.13,0c-.06.06-.09.1-.09.13a.12.12,0,0,0,0,.09A0,0,0,0,0,49.77,25.28ZM50,16.7l-.13,0c-.06.06-.09.1-.09.13a.13.13,0,0,0,0,.09s0,0,0,0a.27.27,0,0,0,.18-.08q.09,0,.09-.09a.12.12,0,0,0,0-.09A.13.13,0,0,0,50,16.7Zm.11,1.59s.08,0,.13-.09.09-.06.09-.09a.12.12,0,0,0,0-.09s0,0,0,0-.07,0-.13.09-.09.1-.09.13a.13.13,0,0,0,0,.09Zm.13,6.21a.24.24,0,0,0,.17-.09c.06,0,.09-.06.09-.09a.14.14,0,0,0,0-.09,0,0,0,0,0,0,0s-.08,0-.13.09-.13.1-.13.13a.13.13,0,0,0,0,.09ZM50.42,17s.07,0,.13-.09.09-.06.09-.09a.14.14,0,0,0,0-.09,0,0,0,0,0,0,0,.18.18,0,0,0-.13,0c-.09.06-.13.1-.13.13a.13.13,0,0,0,0,.09A.14.14,0,0,0,50.42,17ZM51.24,15s.07,0,.13-.09.09-.06.09-.09a.13.13,0,0,0,0-.09.13.13,0,0,0-.09,0,.34.34,0,0,0-.13,0q-.09.08-.09.13a.12.12,0,0,0,0,.09A.11.11,0,0,0,51.24,15Zm.11-1.63s-.07,0-.13.09a.26.26,0,0,0-.09.13.13.13,0,0,0,0,.09.11.11,0,0,0,.09,0s.07,0,.13-.09.09-.1.09-.13a.12.12,0,0,0,0-.09A.12.12,0,0,0,51.36,13.33Zm.11,4.49s.07,0,.13-.08.09-.1.09-.13a.13.13,0,0,0,0-.09h0a.39.39,0,0,0-.18,0,.28.28,0,0,0-.09.13.14.14,0,0,0,0,.09A.13.13,0,0,0,51.47,17.82Zm.14-6.42h0c-.06,0-.09.06-.09.18s0,.1.13.13l0,0c.06,0,.09-.06.09-.18S51.69,11.45,51.6,11.39Zm.15,1.76a.4.4,0,0,0,.18-.09C52,13,52,13,52,12.94a.13.13,0,0,0,0-.09h0a.43.43,0,0,0-.17,0,.28.28,0,0,0-.09.13.14.14,0,0,0,0,.09A0,0,0,0,0,51.75,13.15Zm.26.53a.48.48,0,0,0,.18-.09c.06-.06.09-.1.09-.13a.15.15,0,0,0-.13-.13s-.07,0-.13.08a.28.28,0,0,0-.09.13.14.14,0,0,0,0,.09A0,0,0,0,0,52,13.69Zm.13-2.55h0c-.06,0-.09.06-.09.18s0,.1.13.13l0,0c.06,0,.09-.06.09-.17S52.22,11.2,52.14,11.13Zm.48.32,0,0c.06,0,.09-.06.09-.17s0-.12-.13-.18h0c-.06,0-.09.06-.09.17S52.53,11.42,52.61,11.45Zm.13,3a.26.26,0,0,0,.18-.08c.06,0,.09-.06.09-.09a.14.14,0,0,0,0-.09s0,0,0,0a.27.27,0,0,0-.13.08c-.09.06-.13.1-.13.13a.13.13,0,0,0,0,.09Zm.06-1.28s.07,0,.13-.09S53,13,53,13a.13.13,0,0,0,0-.09h0l-.13,0c-.09.06-.13.1-.13.13a.14.14,0,0,0,0,.09A.13.13,0,0,0,52.81,13.17Zm.38-5.06,0,0c.06,0,.09-.06.09-.17a.17.17,0,0,0-.13-.18h0c-.06,0-.09.06-.09.17S53.11,8.08,53.19,8.11Zm1.48,4.16,0,0c.06,0,.09-.06.09-.17a.18.18,0,0,0-.13-.18h0c-.06,0-.09.06-.09.18S54.58,12.24,54.67,12.27Zm0-3.48s.07,0,.13-.09a.14.14,0,0,0,.09-.13.13.13,0,0,0,0-.09h0l-.13,0c-.09.05-.13.1-.13.13a.14.14,0,0,0,0,.09A.16.16,0,0,0,54.68,8.8ZM54.91,8a.25.25,0,0,0,.18-.09c.06,0,.09-.06.09-.09a.14.14,0,0,0,0-.09,0,0,0,0,0,0,0s-.07,0-.13.09-.13.1-.13.13a.12.12,0,0,0,0,.09Zm.47,3.88a.24.24,0,0,0,.18-.08c.06,0,.09-.06.09-.09a.14.14,0,0,0,0-.09.12.12,0,0,0-.09,0,.25.25,0,0,0-.13.08.28.28,0,0,0-.09.13.14.14,0,0,0,0,.09ZM55.7,8a.24.24,0,0,0,.18-.09c.06,0,.09-.06.09-.09a.14.14,0,0,0,0-.09.13.13,0,0,0-.09,0s-.07,0-.13.09-.09.1-.09.13a.12.12,0,0,0,0,.09Zm.5,1.9V9.79c0-.06-.06-.09-.09-.09a.35.35,0,0,0-.22.13.22.22,0,0,0,0,.26c0,.09,0,.13.09.13s.09,0,.18-.13A.38.38,0,0,0,56.2,9.92Z"/><path d="M75.37,29.2c.16.34.31.71.47,1.11a8.19,8.19,0,0,1,.36,1.13,2,2,0,0,1,0,.39.35.35,0,0,1-.09.26.82.82,0,0,1-.53.17,1.3,1.3,0,0,1-.31,0,3.65,3.65,0,0,0-.84-.15,12.29,12.29,0,0,1-1.85-.16,9.94,9.94,0,0,0-1.4-.15,2.12,2.12,0,0,0-1,.16.7.7,0,0,1-.66.08.74.74,0,0,1-.38-.71,1.34,1.34,0,0,0-.12-.66,4.71,4.71,0,0,0-.26-.49A.48.48,0,0,0,68.6,30a.85.85,0,0,0-.24-.07,2.84,2.84,0,0,1-.42-.12,5,5,0,0,0-1.4-.2c-.5,0-1-.06-1.58-.07h-.79l-2.36.05a5.11,5.11,0,0,0-1.26.11,1.47,1.47,0,0,0-.71.49,2.83,2.83,0,0,0-.3.61,3.82,3.82,0,0,1-.27.61,1.11,1.11,0,0,1-.64.45,3.85,3.85,0,0,1-1.37.24H57a11.9,11.9,0,0,1-1.58-.22c-.52-.11-1-.2-1.53-.26a1.88,1.88,0,0,0-.4,0,3.54,3.54,0,0,0-1.19.2v-.57q.73-1.53,1.3-3t1.14-2.91L56,22.15l1.46-3.77q.5-1.27,1.17-2.8T60,12.13q.23-.57.57-1.55c.23-.66.47-1.31.71-2a16.12,16.12,0,0,1,.77-1.77,2.13,2.13,0,0,1,.77-1,2.44,2.44,0,0,1,.81-.1H65c.44,0,.86,0,1.25.06a3.3,3.3,0,0,1,.68.1.82.82,0,0,1,.24.42c.07.22.15.49.23.8s.17.65.27,1,.2.73.31,1.08q.29.84.53,1.44L69,11.82c.14.35.28.69.43,1s.28.69.42,1.1q1.1,3,2.27,6.13t2.22,6a8.67,8.67,0,0,1,.4,1.22,10,10,0,0,0,.4,1.26A4.41,4.41,0,0,0,75.37,29.2ZM55.42,28a.43.43,0,0,0,.22-.08c.06,0,.09-.06.09-.09a.14.14,0,0,0,0-.09.13.13,0,0,0-.09,0s-.07,0-.13.09-.13.1-.13.13a.13.13,0,0,0,0,.09Zm1.35,1.12A.41.41,0,0,0,57,29a.13.13,0,0,0,.09-.13.11.11,0,0,0,0-.09h0a.39.39,0,0,0-.18,0c-.09.06-.13.12-.13.17a.13.13,0,0,0,0,.09Zm.26.71a.83.83,0,0,0-.08-.35.13.13,0,0,0-.09,0c-.06,0-.1.07-.13.22v.09a.55.55,0,0,0,.09.31c0,.06.06.09.09.09s.1-.07.13-.22Zm.58-.7a.27.27,0,0,0,.18-.09.14.14,0,0,0,.09-.13.11.11,0,0,0,0-.09h0a.3.3,0,0,0-.13,0c-.09.06-.14.12-.14.17a.14.14,0,0,0,0,.09Zm0-1.1a.26.26,0,0,0,.18-.08q.09,0,.09-.09a.13.13,0,0,0,0-.09s0,0,0,0-.08,0-.13.09-.13.1-.13.13a.13.13,0,0,0,0,.09Zm.64-4.62a.46.46,0,0,0,.18-.08c.06-.06.09-.1.09-.13a.13.13,0,0,0,0-.09.13.13,0,0,0-.09,0s-.07,0-.13.09-.13.1-.13.13a.13.13,0,0,0,0,.09A.11.11,0,0,0,58.26,23.37Zm.05,2.29a0,0,0,0,0,0,0c.06,0,.09-.06.09-.17a.18.18,0,0,0-.13-.18h-.09c-.06,0-.09.06-.09.17S58.2,25.63,58.31,25.66Zm.17-5.37a.32.32,0,0,0,.31-.21.43.43,0,0,1-.35-.18.12.12,0,0,0-.09,0c-.06,0-.1.08-.13.22A.24.24,0,0,0,58.48,20.29Zm.19-1a0,0,0,0,0,0,0l0,0c0,.06,0,.09.13.09h.09q.08.18.13.18s0,0,0,0v0a.08.08,0,0,0-.09-.09H58.8C58.74,19.39,58.7,19.33,58.67,19.33Zm.11,4.84a.26.26,0,0,0,.18-.08Q59,24,59,24a.14.14,0,0,0,0-.09.13.13,0,0,0-.09,0s-.07,0-.13.09-.09.1-.09.13a.13.13,0,0,0,0,.09Zm.33-1.62a.48.48,0,0,0,.18-.09.34.34,0,0,0,0-.13.13.13,0,0,0,0-.09h0a.34.34,0,0,0-.13,0c-.09.06-.13.1-.13.13a.13.13,0,0,0,0,.09A.14.14,0,0,0,59.11,22.55Zm.19-3.61s-.07,0-.13.09-.13.1-.13.13a.12.12,0,0,0,0,.09.14.14,0,0,0,.09,0,.48.48,0,0,0,.18-.09.34.34,0,0,0,0-.13.13.13,0,0,0,0-.09S59.32,18.94,59.29,18.94Zm1.11-.38a.39.39,0,0,0,0-.17,1,1,0,0,0-.43-.49,2.72,2.72,0,0,0-.58.3.13.13,0,0,0,0,.09s0,.06.09.09a1.63,1.63,0,0,0,.33.23,1.64,1.64,0,0,1,.46.4A.63.63,0,0,0,60.4,18.56Zm-1,2.1a.74.74,0,0,0,.31-.08c.12-.06.18-.11.18-.17v0a.12.12,0,0,0-.09,0,.48.48,0,0,0-.27.09c-.15.06-.22.12-.22.17v0A.13.13,0,0,0,59.4,20.66Zm.25-5a0,0,0,0,0,0,0,.28.28,0,0,0,.21.18H60a.18.18,0,0,0,.18-.09v0a.59.59,0,0,0-.21-.35c.12-.06.18-.1.18-.13a.14.14,0,0,0,0-.09h0c-.06,0-.09,0-.09.13v.09C59.76,15.52,59.65,15.6,59.65,15.69ZM59.87,25a.48.48,0,0,0,.18-.09c.06-.06.09-.1.09-.13a.13.13,0,0,0,0-.09.12.12,0,0,0-.09,0s-.08,0-.13.09-.09.1-.09.13a.14.14,0,0,0,0,.09A0,0,0,0,0,59.87,25ZM60,16.84a.67.67,0,0,0,.26-.08c.12-.06.18-.11.18-.17v0a.12.12,0,0,0-.09,0,.66.66,0,0,0-.27.09c-.12.06-.18.12-.18.17v0S60,16.84,60,16.84Zm.39.49a.43.43,0,0,0-.18,0,.26.26,0,0,0-.09.18.13.13,0,0,0,0,.09h0a.26.26,0,0,0,.18-.08.14.14,0,0,0,.09-.13.12.12,0,0,0,0-.09ZM60.32,15a.29.29,0,0,0,.09.22.77.77,0,0,0,.52.36.36.36,0,0,0,.13,0,.35.35,0,0,0,.31-.13.13.13,0,0,0,0-.09,1,1,0,0,0-.34-.58.7.7,0,0,0,.22,0,.39.39,0,0,0,.18,0,.84.84,0,0,0,.16-.22,1.77,1.77,0,0,0,.12-.31.54.54,0,0,1,.13-.26h-.35a.55.55,0,0,0-.2.24,2.84,2.84,0,0,0-.12.31.58.58,0,0,1-.13.24l0,0q-.09,0-.22-.18c-.12-.12-.2-.18-.26-.18l0,0A.7.7,0,0,0,60.32,15Zm.15,8.1a.44.44,0,0,0,.18-.09.34.34,0,0,0,0-.13.13.13,0,0,0,0-.09,0,0,0,0,0,0,0s-.07,0-.13.09-.13.1-.13.13a.12.12,0,0,0,0,.09A.12.12,0,0,0,60.46,23.14ZM60.62,22a.25.25,0,0,0-.13.08c-.09.06-.13.1-.13.13a.14.14,0,0,0,0,.09.13.13,0,0,0,.09,0,.42.42,0,0,0,.17-.09.32.32,0,0,0,0-.13.13.13,0,0,0,0-.09A0,0,0,0,0,60.62,22ZM63,26.44h0a.85.85,0,0,1,.61.27.8.8,0,0,0-.1-.46.78.78,0,0,0-.3-.25l-.37-.18a1.21,1.21,0,0,1-.3-.22v-.27c.12-.06.18-.1.18-.13v-.09a.24.24,0,0,0-.17-.09,1.23,1.23,0,0,0,0-.27.33.33,0,0,0,0-.22h-.09a.19.19,0,0,0-.13,0,.47.47,0,0,0-.09.26c0,.12.1.18.31.18v.31H62V25c0-.23,0-.35,0-.35h0l-.45.39c0-.12-.06-.18-.09-.18h0c-.09.06-.13.12-.14.17h-.26v-.09a.18.18,0,0,0,0-.13.83.83,0,0,1-.26,0c0-.12-.06-.17-.09-.17s0,0,0,0a.13.13,0,0,0,0,.09s0,0,.09,0h.09v0c0,.15.1.22.3.23,0,.12.07.17.13.17h0a.18.18,0,0,0,.09-.17h.27a.19.19,0,0,0,.22.22.54.54,0,0,1,.31.09,2.33,2.33,0,0,1-.2.33.52.52,0,0,1-.33.2v0c0-.15-.08-.22-.26-.23a3.6,3.6,0,0,0,.24.49,1.78,1.78,0,0,1,.15.31v0a.47.47,0,0,1-.09.26,2.65,2.65,0,0,1-.32.52.87.87,0,0,0,.47-.15l.2-.2H62l.3.36a1.48,1.48,0,0,0,0,.31c0,.15,0,.23.13.27h0a.42.42,0,0,0,.31-.13,1,1,0,0,0,.18-.39v0c0-.12-.12-.21-.35-.27C62.58,26.64,62.73,26.46,63,26.44Zm-1.65,1.65a.3.3,0,0,0,.27-.13.18.18,0,0,0,0-.13v0s0,0-.13,0a2,2,0,0,0-.35,0c-.06-.15-.1-.22-.13-.22s0,0,0,0a.12.12,0,0,0,0,.09c0,.06.07.09.22.09C61.14,28,61.2,28.08,61.32,28.09Zm-.16-9.82h0c-.06,0-.09.06-.09.17a.17.17,0,0,0,.13.18h0q.09,0,.09-.18C61.28,18.38,61.24,18.33,61.15,18.26Zm.21-5.06c0,.26,0,.41.13.44a.19.19,0,0,0,.13,0,.44.44,0,0,0,.22-.09.36.36,0,0,0,.09-.26v-.13c0-.15-.21-.22-.57-.23Zm.33,4.54h0c-.06,0-.09.06-.09.18s0,.1.13.13l0,0c.06,0,.09-.06.09-.17A.18.18,0,0,0,61.69,17.74Zm.39-2.68A.13.13,0,0,0,62,15h-.09c-.06,0-.09.08-.09.22s-.18.06-.18.09,0,0,0,0a.13.13,0,0,0,.09,0s0,0,0-.09v-.09C62,15.14,62.08,15.09,62.08,15.06Zm.92.15a.72.72,0,0,0-.08-.39h-.09a.15.15,0,0,0-.13.09.34.34,0,0,0-.09.26,2.4,2.4,0,0,0,.08.57c-.47,0-.74.11-.8.25a.27.27,0,0,0-.09.18q0,.09.13.18a.31.31,0,0,0,.22.09.43.43,0,0,0,.18,0c.18,0,.3-.25.36-.66A.64.64,0,0,0,63,15.21Zm-.81,4.26a.12.12,0,0,0,.09,0v0c0-.06,0-.09-.13-.09h-.09c0-.12-.06-.18-.09-.18s0,0,0,0a.12.12,0,0,0,0,.08s0,0,.09,0h.09Q62.15,19.47,62.19,19.47Zm-.06-1.8a.47.47,0,0,0,.22-.08.14.14,0,0,0,.09-.13.12.12,0,0,0,0-.09h0a.39.39,0,0,0-.18,0c-.09.06-.13.12-.13.17a.13.13,0,0,0,0,.09Zm.17-5.9c0,.06,0,.09,0,.09s.1-.07.14-.22v-.09a.77.77,0,0,0-.08-.35.12.12,0,0,0-.09,0c-.06,0-.1.08-.13.22A.64.64,0,0,0,62.3,11.77Zm1,.77s0,0,0,0a1.13,1.13,0,0,1-.38.3,1.68,1.68,0,0,0-.38.26.18.18,0,0,0,0,.13c0,.06.09.15.26.27h-.27a1.12,1.12,0,0,0-.27.44v.13c0,.12.08.2.26.27l.18-.35a1.07,1.07,0,0,0,.1-.48.38.38,0,0,0,.24-.15c0-.07.14-.11.29-.11a1.81,1.81,0,0,0,.83.59.61.61,0,0,0,.23-.35v0a1.19,1.19,0,0,0-.15-.22c-.07-.09-.15-.19-.24-.31a.42.42,0,0,1-.09-.31v-.13a.55.55,0,0,0,.39.18.41.41,0,0,0,.17,0,.94.94,0,0,0,.54-.43h-.09a.49.49,0,0,1-.48-.27c.35,0,.6-.05.75-.08s.24-.08.27-.17v0a.69.69,0,0,0-.09-.31c-.09-.18-.2-.43-.34-.75l0-.09v-.22a.38.38,0,0,0,0-.17.27.27,0,0,0-.17,0h-.13c-.06.3-.2.44-.4.44a.66.66,0,0,1-.39-.18.83.83,0,0,0-.56-.85,1.37,1.37,0,0,1,.24-.33,1.82,1.82,0,0,0,.25-.28V8.71a.36.36,0,0,0,0-.14.76.76,0,0,0-.44-.23.54.54,0,0,1,0,.22.18.18,0,0,1,0,.13,2.91,2.91,0,0,1-.2.33.46.46,0,0,0-.11.24c0,.09.1.15.31.18-.15.17-.23.29-.23.35a.14.14,0,0,0,.09.13l.22.11a.5.5,0,0,1,.22.25h-.13c-.06,0-.09,0-.09,0a1.44,1.44,0,0,0-.09.22c-.29,0-.44,0-.44.08a0,0,0,0,0,0,0,1.43,1.43,0,0,1,.13.4q-.18.08-.18.13a0,0,0,0,0,0,0l0,0c.06,0,.09,0,.09-.13v-.09c.15,0,.22-.06.22-.17a1.45,1.45,0,0,1,.05-.35h.31c.05.23.1.49.14.77a.78.78,0,0,0,.37.6.47.47,0,0,1-.16.26.38.38,0,0,0-.12.31c-.09,0-.17-.06-.24-.18L63.4,12c-.06-.09-.12-.13-.17-.13s-.16.1-.23.3C63.21,12.29,63.31,12.41,63.31,12.53ZM62.52,27v0h0c-.15,0-.22.09-.23.26C62.43,27.22,62.52,27.15,62.52,27Zm.08-8.54a.43.43,0,0,0-.18,0c-.06.06-.09.1-.09.13a.13.13,0,0,0,0,.09,0,0,0,0,0,0,0,.4.4,0,0,0,.18-.09q.09-.08.09-.13a.12.12,0,0,0,0-.09Zm-.24,7.26a0,0,0,0,0,0,0h0c.06,0,.09,0,.09-.09V25.6C62.42,25.65,62.37,25.69,62.36,25.72Zm.47-7.92a.13.13,0,0,0,0-.09h0c-.06,0-.09,0-.09.13v.09c-.12.05-.18.1-.18.13a0,0,0,0,0,0,0h0c.06,0,.09,0,.09-.09v-.09C62.77,17.88,62.83,17.83,62.83,17.8Zm3.31,5.33a4.64,4.64,0,0,0-.16-.75c-.17-.5-.36-1-.57-1.62s-.43-1.1-.66-1.57-.38-.71-.47-.71a.39.39,0,0,1,0,.18,2.46,2.46,0,0,1-.19.75l-.66,1.46q-.34.77-.57,1.42a1.77,1.77,0,0,0-.14.57.36.36,0,0,0,.08.27q0,.09.57.1l1.14,0c.38,0,.91,0,1.59-.06ZM63.3,25.3s-.08,0-.13.09-.13.1-.13.13a.13.13,0,0,0,0,.09.12.12,0,0,0,.09,0,.5.5,0,0,0,.18-.09c.06-.06.09-.1.09-.13a.13.13,0,0,0,0-.09A.13.13,0,0,0,63.3,25.3Zm-.08,2.37h0c.06,0,.09-.06.09-.18s0-.12-.13-.18h-.09c-.06,0-.09.06-.09.17S63.1,27.64,63.21,27.67ZM63.31,15a.48.48,0,0,0,.18-.09c.06-.06.09-.1.09-.13a.13.13,0,0,0,0-.09h0a.39.39,0,0,0-.18,0c-.09.06-.13.1-.13.13a.13.13,0,0,0,0,.09A.11.11,0,0,0,63.31,15Zm0-1.85h.09s0,0,0,0-.08.07-.22.13C63.25,13.16,63.28,13.1,63.34,13.1Zm.26-2.81v.26h.09a.17.17,0,0,0,.13,0,.82.82,0,0,1,0-.22Zm.37,17s.08,0,.13-.09.09-.1.09-.13a.13.13,0,0,0,0-.09.12.12,0,0,0-.09,0s-.08,0-.13.09-.09.1-.09.13a.13.13,0,0,0,0,.09A.14.14,0,0,0,64,27.29Zm.11-19.24s-.07,0-.13.09-.09.1-.09.13a.11.11,0,0,0,0,.09,0,0,0,0,0,0,0,.4.4,0,0,0,.18-.09.26.26,0,0,0,.09-.13.14.14,0,0,0,0-.09A.12.12,0,0,0,64.08,8.05Zm.06,7.48s.08,0,.13-.09a.23.23,0,0,0,.09-.13.14.14,0,0,0,0-.09.13.13,0,0,0-.09,0s-.07,0-.13.09-.09.1-.09.13a.13.13,0,0,0,0,.09A.14.14,0,0,0,64.14,15.54Zm.1-3.78h0s.06.06.09.18h-.26C64.11,11.86,64.15,11.81,64.24,11.75Zm0,14.17a.5.5,0,0,0,.18-.08.35.35,0,0,0,0-.13.12.12,0,0,0,0-.09s0,0,0,0-.07,0-.13.09-.13.1-.13.13a.14.14,0,0,0,0,.09A.12.12,0,0,0,64.25,25.93Zm0-16.64h0c-.06,0-.09.06-.09.17a.17.17,0,0,0,.13.18h0c.06,0,.09-.06.09-.18S64.37,9.35,64.28,9.29Zm.39,6.25a.4.4,0,0,0,.18-.09c.06-.05.09-.1.09-.13a.13.13,0,0,0,0-.09.13.13,0,0,0-.09,0s-.07,0-.13.09-.13.1-.13.13a.13.13,0,0,0,0,.09A.12.12,0,0,0,64.67,15.54Zm0-1.1a.42.42,0,0,0,.18-.08c.06-.06.09-.1.09-.13a.16.16,0,0,0-.13-.13s-.07,0-.13.09-.13.1-.13.13a.13.13,0,0,0,0,.09A.12.12,0,0,0,64.69,14.44ZM65,11.5s0,.08-.09.13a.4.4,0,0,1-.18.09.12.12,0,0,1-.09,0,.13.13,0,0,1,0-.09s0-.07.13-.13.1-.09.13-.09a.13.13,0,0,1,.09,0A.13.13,0,0,1,65,11.5ZM64.77,27a.5.5,0,0,0,.18-.09c.06-.06.09-.1.09-.13a.13.13,0,0,0,0-.09.12.12,0,0,0-.09,0s-.08,0-.13.09-.09.1-.09.13a.14.14,0,0,0,0,.09A0,0,0,0,0,64.77,27ZM65,13.61a.48.48,0,0,0,.18-.09c.06-.06.09-.1.09-.13a.14.14,0,0,0,0-.09.13.13,0,0,0-.09,0s-.07,0-.13.09-.09.1-.09.13a.14.14,0,0,0,0,.09A0,0,0,0,0,65,13.61Zm.52-5.23a.36.36,0,0,0-.18,0,.27.27,0,0,0-.09.17.15.15,0,0,0,0,.09h0a.26.26,0,0,0,.18-.09.14.14,0,0,0,.09-.13.13.13,0,0,0,0-.09ZM66,12.44c0,.18-.06.28-.18.31a.69.69,0,0,0-.4.3c.09.17.19.27.3.27a.12.12,0,0,0,.09,0,.54.54,0,0,0,.31-.24.82.82,0,0,0,.14-.46c0-.15-.1-.27-.3-.36A.84.84,0,0,1,66,12.44Zm-.31-3s-.07,0-.13.09-.13.1-.13.13a.12.12,0,0,0,0,.09.13.13,0,0,0,.09,0s.08,0,.13-.09a.26.26,0,0,0,.09-.13.15.15,0,0,0,0-.09S65.76,9.44,65.73,9.44Zm.15,1.81h0c-.06,0-.09.06-.09.17s0,.1.13.14l0,0c.06,0,.09-.06.09-.18A.17.17,0,0,0,65.88,11.25Zm0,9.2a.45.45,0,0,0,.22-.09q.09,0,.09-.09a.15.15,0,0,0-.13-.13s-.07,0-.13.09-.13.1-.13.13a.13.13,0,0,0,0,.09Zm.32-10.17s-.07,0-.13.09-.13.1-.13.13a.12.12,0,0,0,0,.09.11.11,0,0,0,.09,0,.48.48,0,0,0,.18-.08c.06-.06.09-.1.09-.13a.16.16,0,0,0-.13-.13Zm0,5.81a.4.4,0,0,0,.18-.09q.09-.08.09-.13a.13.13,0,0,0,0-.09.12.12,0,0,0-.09,0s-.08,0-.13.09-.09.1-.09.13a.12.12,0,0,0,0,.09S66.26,16.09,66.29,16.09Zm.4-3.43,0,0q.09,0,.09-.18a.26.26,0,0,0-.13-.22h0c-.06,0-.09.08-.09.22S66.61,12.64,66.7,12.66Zm.13,6.17a.4.4,0,0,0,.18-.09.32.32,0,0,0,0-.13.14.14,0,0,0,0-.09h0l-.13,0c-.09.06-.13.1-.13.13a.13.13,0,0,0,0,.09A.13.13,0,0,0,66.82,18.83Zm0-4.62,0,0c0,.09.13.15.31.18a1,1,0,0,0,.31,0h.26a1.12,1.12,0,0,0,.57-.21.29.29,0,0,0,.14-.26v-.09c0-.15-.2-.34-.52-.58v.09a.49.49,0,0,1-.27.48c0-.12-.07-.18-.13-.18a.17.17,0,0,0-.13.17h-.31a2.12,2.12,0,0,0,0-.35.26.26,0,0,0,0-.18H67a.13.13,0,0,0-.09,0,.39.39,0,0,0-.14.26c0,.12.1.19.31.22C66.89,14,66.81,14.12,66.8,14.21Zm.26-2.81s-.07,0-.13.09-.13.1-.13.13a.12.12,0,0,0,0,.09.13.13,0,0,0,.09,0,.41.41,0,0,0,.18-.09.31.31,0,0,0,0-.13.14.14,0,0,0,0-.09A0,0,0,0,0,67.07,11.39Zm.65.54c0-.12,0-.19-.08-.22h0a.38.38,0,0,0-.27.13.48.48,0,0,0-.18.31l0,0c0,.06.06.09.17.09l.31,0c.05.15.1.22.13.22s0,0,0-.08v0c0-.06-.06-.09-.17-.09A1.84,1.84,0,0,0,67.72,11.93Zm-.53,3.34h0a.74.74,0,0,0,.22-.19,1,1,0,0,0,.18-.28s-.12.06-.27.17A1.23,1.23,0,0,0,67.18,15.27Zm.16,4.14a.39.39,0,0,0,.18-.09.24.24,0,0,0,.09-.13.14.14,0,0,0,0-.09.12.12,0,0,0-.09,0s-.08,0-.13.09-.09.1-.09.13a.12.12,0,0,0,0,.09S67.31,19.41,67.34,19.41ZM67.55,14a.13.13,0,0,1-.09,0s-.06-.06-.08-.18h.26A.14.14,0,0,1,67.55,14Zm.21,12.73a.26.26,0,0,0,.18-.08.14.14,0,0,0,.09-.13.14.14,0,0,0,0-.09h0a.43.43,0,0,0-.18,0,.26.26,0,0,0-.09.18.12.12,0,0,0,0,.09Zm.57.32a.4.4,0,0,0,.18-.09q.09-.08.09-.13a.12.12,0,0,0,0-.09.12.12,0,0,0-.09,0s-.07,0-.13.09-.13.1-.13.13a.15.15,0,0,0,.13.13Zm.07-4.66a.68.68,0,0,0,.31-.08c.12-.06.18-.12.18-.17v0a.12.12,0,0,0-.09,0,.49.49,0,0,0-.27.08c-.15.06-.22.12-.22.17v0A.13.13,0,0,0,68.4,22.42Zm.22-6.07s-.07,0-.13.09-.13.1-.13.13a.13.13,0,0,0,0,.09h0a.42.42,0,0,0,.22-.09c.06,0,.09-.06.09-.09a.13.13,0,0,0,0-.09A.12.12,0,0,0,68.62,16.35Zm.05,11.4h0c.06,0,.09-.06.09-.18s0-.12-.13-.18h0c-.06,0-.09.06-.09.17A.17.17,0,0,0,68.67,27.75Zm.39-11.88s.08,0,.13-.09a.27.27,0,0,0,.09-.13.15.15,0,0,0,0-.09.13.13,0,0,0-.09,0s-.07,0-.13.09-.09.1-.09.13a.13.13,0,0,0,0,.09A.13.13,0,0,0,69.07,15.87Zm.24,1.37s.08,0,.13-.09a.28.28,0,0,0,.09-.13.14.14,0,0,0,0-.09,0,0,0,0,0,0,0s-.07,0-.13.09-.13.1-.13.13a.13.13,0,0,0,0,.09A.12.12,0,0,0,69.31,17.24Zm2.12,8.39a0,0,0,0,0,0,0v0c0-.06,0-.09-.09-.09H71.3a.76.76,0,0,0,0-.26.65.65,0,0,0-.17-.49.63.63,0,0,0-.44-.23.47.47,0,0,0-.4.17.18.18,0,0,0,0,.13.66.66,0,0,0,.17.36h-.53V25a.17.17,0,0,0,0-.13.85.85,0,0,1-.27-.05,1.91,1.91,0,0,0,.05-.35c0-.09,0-.13,0-.13h0a.2.2,0,0,0-.13,0,.3.3,0,0,0-.13.27c0,.12.1.17.3.18v0c0,.15.1.22.31.23a1.66,1.66,0,0,0,0,.31.17.17,0,0,0,0,.13c0,.06.06.09.09.09h.09a.48.48,0,0,0,.25-.2.53.53,0,0,0,.11-.32,2.32,2.32,0,0,0,.35.22,1.1,1.1,0,0,0,.48.1C71.36,25.58,71.41,25.64,71.43,25.64Zm-1.74-7.38s-.07,0-.13.08-.13.1-.13.13a.16.16,0,0,0,.13.13.4.4,0,0,0,.18-.09.32.32,0,0,0,0-.13.14.14,0,0,0,0-.09A0,0,0,0,0,69.69,18.26Zm.21,3.83s-.07,0-.13.08-.13.1-.13.13a.16.16,0,0,0,.13.13.46.46,0,0,0,.17-.09c.06-.06.09-.1.09-.13a.15.15,0,0,0-.13-.13Zm.42,1.5a4.13,4.13,0,0,1-.66-.36v.13a.8.8,0,0,0,.13.49.68.68,0,0,0,.39.27h.13a.83.83,0,0,0,.27,0,.32.32,0,0,0,.18-.31A1.48,1.48,0,0,1,70.32,23.59ZM70,26.27a.44.44,0,0,0,.18-.09q.09-.08.09-.13a.13.13,0,0,0,0-.09.12.12,0,0,0-.09,0A.23.23,0,0,0,70,26c-.06.06-.09.1-.09.13a.13.13,0,0,0,0,.09S69.94,26.27,70,26.27Zm.63-4s0,0,0,0l0,0c.06,0,.09,0,.09-.13v-.09c.15-.06.22-.1.22-.13a0,0,0,0,0,0,0h-.09c-.06,0-.09.06-.09.17S70.6,22.25,70.6,22.28Zm.6,1.33h0c-.06,0-.09.06-.09.17a.17.17,0,0,0,.13.18h0c.06,0,.09-.06.09-.17S71.28,23.67,71.2,23.61Zm.18-.31a.48.48,0,0,0,.18-.09c.06-.06.09-.1.09-.13a.13.13,0,0,0,0-.09.14.14,0,0,0-.09,0s-.07,0-.13.09-.09.1-.09.13a.14.14,0,0,0,0,.09A0,0,0,0,0,71.38,23.3Z"/><path d="M101.56,29.62c.16.34.31.71.47,1.11a8.31,8.31,0,0,1,.36,1.13,2,2,0,0,1,0,.39.35.35,0,0,1-.09.26.82.82,0,0,1-.53.17,1.17,1.17,0,0,1-.31,0,3.75,3.75,0,0,0-.83-.15,12.62,12.62,0,0,1-1.85-.16,10.47,10.47,0,0,0-1.41-.15,2.16,2.16,0,0,0-1,.16.77.77,0,0,1-.4.13.83.83,0,0,1-.26,0,.75.75,0,0,1-.39-.71,1.31,1.31,0,0,0-.12-.66c-.12-.24-.2-.4-.26-.49a.47.47,0,0,0-.17-.18.8.8,0,0,0-.24-.07,2.48,2.48,0,0,1-.42-.12,5,5,0,0,0-1.41-.2c-.5,0-1-.06-1.58-.06h-.79L88,30a5.13,5.13,0,0,0-1.26.11,1.45,1.45,0,0,0-.71.5,2.69,2.69,0,0,0-.3.61,4.11,4.11,0,0,1-.27.61,1.11,1.11,0,0,1-.64.45,3.85,3.85,0,0,1-1.37.25h-.22a11.37,11.37,0,0,1-1.58-.22q-.79-.17-1.54-.27a2.31,2.31,0,0,0-.4,0,3.55,3.55,0,0,0-1.19.2v-.57q.73-1.53,1.3-3T81,25.73l1.21-3.15,1.47-3.77q.5-1.27,1.16-2.8t1.39-3.46q.23-.57.57-1.55t.71-2a16.35,16.35,0,0,1,.77-1.77,2.14,2.14,0,0,1,.76-1,2.48,2.48,0,0,1,.81-.1h1.34c.44,0,.86,0,1.25.06a3.3,3.3,0,0,1,.68.1.83.83,0,0,1,.24.42c.07.22.15.49.23.79l.27,1c.1.37.2.73.32,1.08.2.56.37,1,.53,1.44l.45,1.13c.14.35.28.69.42,1s.28.69.42,1.11l2.26,6.13q1.16,3.17,2.22,6a8.76,8.76,0,0,1,.4,1.22,10.29,10.29,0,0,0,.4,1.26A4.7,4.7,0,0,0,101.56,29.62ZM81.62,28.38a.39.39,0,0,0,.22-.08c.06,0,.09-.06.09-.09a.13.13,0,0,0,0-.09.13.13,0,0,0-.09,0s-.08,0-.13.09-.13.1-.13.13a.12.12,0,0,0,0,.09ZM83,29.5a.44.44,0,0,0,.22-.09.14.14,0,0,0,.09-.13.12.12,0,0,0,0-.09h0a.38.38,0,0,0-.17,0c-.09.06-.13.12-.13.17a.12.12,0,0,0,0,.09Zm.25.71a.74.74,0,0,0-.08-.35.12.12,0,0,0-.09,0c-.06,0-.1.07-.14.22v.09a.53.53,0,0,0,.08.31c0,.06.06.09.09.09s.1-.07.14-.22Zm.58-.7a.24.24,0,0,0,.18-.09.13.13,0,0,0,.09-.13.12.12,0,0,0,0-.09h0a.33.33,0,0,0-.13,0c-.09.06-.13.12-.13.17a.12.12,0,0,0,0,.09Zm0-1.1a.24.24,0,0,0,.18-.08c.06,0,.09-.06.09-.09a.14.14,0,0,0,0-.09,0,0,0,0,0,0,0s-.07,0-.13.09-.13.1-.13.13a.12.12,0,0,0,0,.09Zm.64-4.62a.37.37,0,0,0,.18-.08c.06-.06.09-.1.09-.13a.13.13,0,0,0,0-.09.13.13,0,0,0-.09,0s-.07,0-.13.09-.13.1-.13.13a.13.13,0,0,0,0,.09A.12.12,0,0,0,84.46,23.8Zm.06,2.29a0,0,0,0,0,0,0c.06,0,.09-.06.09-.17a.18.18,0,0,0-.13-.18h-.09c-.06,0-.09.06-.09.18S84.4,26.06,84.51,26.09Zm.17-5.37A.31.31,0,0,0,85,20.5a.42.42,0,0,1-.35-.18.13.13,0,0,0-.09,0c-.06,0-.1.07-.13.22A.24.24,0,0,0,84.68,20.72Zm.19-1s0,0,0,0l0,0c0,.06,0,.09.13.09H85c.06.12.1.18.13.18a0,0,0,0,0,0,0v0a.08.08,0,0,0-.09-.09H85C84.94,19.81,84.9,19.76,84.87,19.75ZM85,24.6a.24.24,0,0,0,.18-.08c.06,0,.09-.06.09-.09a.13.13,0,0,0,0-.09.11.11,0,0,0-.09,0s-.08,0-.13.09-.09.1-.09.13a.11.11,0,0,0,0,.09ZM85.31,23a.44.44,0,0,0,.18-.09.34.34,0,0,0,0-.13.13.13,0,0,0,0-.09h0a.33.33,0,0,0-.13,0c-.09.06-.13.1-.13.13a.14.14,0,0,0,0,.09A.13.13,0,0,0,85.31,23Zm.18-3.61s-.07,0-.13.09-.13.1-.13.13a.14.14,0,0,0,0,.09.12.12,0,0,0,.09,0,.42.42,0,0,0,.18-.09.36.36,0,0,0,0-.13.14.14,0,0,0,0-.09S85.52,19.37,85.49,19.37ZM86.6,19a.39.39,0,0,0,0-.17,1,1,0,0,0-.43-.49,2.65,2.65,0,0,0-.58.3.13.13,0,0,0,0,.09s0,.06.09.09a1.6,1.6,0,0,0,.33.23,1.62,1.62,0,0,1,.46.4A.64.64,0,0,0,86.6,19Zm-1,2.1a.65.65,0,0,0,.31-.08c.12-.05.18-.11.18-.17v0a.12.12,0,0,0-.09,0,.47.47,0,0,0-.27.08c-.15.06-.22.12-.22.17v0A.12.12,0,0,0,85.6,21.08Zm.25-5s0,0,0,0a.29.29,0,0,0,.22.18h.09a.17.17,0,0,0,.18-.09v0c0-.09-.07-.21-.21-.35q.18-.08.18-.13a.13.13,0,0,0,0-.09h0q-.09,0-.09.13v.09C86,15.94,85.85,16,85.85,16.11Zm.21,9.34a.4.4,0,0,0,.18-.09c.06-.06.09-.1.09-.13a.13.13,0,0,0,0-.09.12.12,0,0,0-.09,0s-.07,0-.13.09-.09.1-.09.13a.13.13,0,0,0,0,.09A0,0,0,0,0,86.06,25.45Zm.16-8.19a.71.71,0,0,0,.27-.09c.12-.05.18-.11.18-.17v0a.13.13,0,0,0-.09,0,.66.66,0,0,0-.27.08c-.12.06-.18.12-.18.17v0S86.17,17.26,86.23,17.26Zm.39.49a.34.34,0,0,0-.17,0,.24.24,0,0,0-.09.17.12.12,0,0,0,0,.09h0a.27.27,0,0,0,.18-.08.14.14,0,0,0,.09-.13.12.12,0,0,0,0-.09Zm-.1-2.29a.29.29,0,0,0,.08.22.77.77,0,0,0,.52.36.3.3,0,0,0,.13,0,.34.34,0,0,0,.31-.13.13.13,0,0,0,0-.09,1,1,0,0,0-.34-.58.66.66,0,0,0,.22,0,.36.36,0,0,0,.18,0,.81.81,0,0,0,.16-.22,1.55,1.55,0,0,0,.12-.31.53.53,0,0,1,.14-.26h-.35a.53.53,0,0,0-.2.24,2.25,2.25,0,0,0-.11.31.57.57,0,0,1-.14.24l0,0c-.06,0-.13-.06-.22-.18s-.2-.18-.26-.18l0,0A.7.7,0,0,0,86.52,15.46Zm.14,8.1a.44.44,0,0,0,.18-.09.34.34,0,0,0,0-.13.15.15,0,0,0,0-.09,0,0,0,0,0,0,0s-.08,0-.13.09-.13.1-.13.13a.13.13,0,0,0,0,.09A.14.14,0,0,0,86.66,23.57Zm.15-1.19s-.07,0-.13.09-.13.1-.13.13a.13.13,0,0,0,0,.09.12.12,0,0,0,.09,0,.4.4,0,0,0,.18-.09.32.32,0,0,0,0-.13.14.14,0,0,0,0-.09A0,0,0,0,0,86.81,22.38Zm2.36,4.48h0a.84.84,0,0,1,.61.27.81.81,0,0,0-.1-.46.77.77,0,0,0-.3-.24L89,26.25a1.22,1.22,0,0,1-.3-.23v-.27c.12-.06.18-.1.18-.13v-.09a.25.25,0,0,0-.17-.09,1.28,1.28,0,0,0,0-.27c0-.12,0-.19,0-.22h-.09a.17.17,0,0,0-.13,0,.46.46,0,0,0-.09.26c0,.12.1.18.31.18v.31h-.57v-.35c0-.23,0-.35,0-.35h0c-.09.09-.24.22-.45.39,0-.12-.06-.18-.08-.18h0c-.09.06-.13.12-.13.18h-.26v-.09a.17.17,0,0,0,0-.13.85.85,0,0,1-.27-.05c0-.12-.05-.17-.08-.17s0,0,0,0a.12.12,0,0,0,0,.09s0,0,.09,0h.09v0c0,.15.1.22.31.23,0,.12.07.18.13.18h0a.17.17,0,0,0,.09-.17h.26a.2.2,0,0,0,.22.22.55.55,0,0,1,.31.09,2.5,2.5,0,0,1-.2.33.52.52,0,0,1-.33.19v0c0-.15-.08-.22-.26-.22a3.77,3.77,0,0,0,.24.49,1.5,1.5,0,0,1,.15.31v0a.47.47,0,0,1-.09.26,2.66,2.66,0,0,1-.32.53.85.85,0,0,0,.46-.15l.2-.2h.13l.3.36a1.17,1.17,0,0,0,0,.31c0,.15,0,.24.13.27h0a.41.41,0,0,0,.31-.13,1,1,0,0,0,.18-.4v0c0-.12-.11-.21-.35-.27C88.78,27.06,88.93,26.89,89.17,26.86Zm-1.65,1.65a.3.3,0,0,0,.27-.13.18.18,0,0,0,0-.13v0s0,0-.13,0a1.6,1.6,0,0,0-.35,0c-.06-.15-.1-.22-.13-.22a0,0,0,0,0,0,0,.11.11,0,0,0,0,.08c0,.06.07.09.22.09C87.34,28.41,87.4,28.51,87.52,28.51Zm-.16-9.82h0c-.06,0-.09.06-.09.17a.17.17,0,0,0,.13.18h0c.06,0,.09-.06.09-.17S87.44,18.75,87.35,18.69Zm.2-5.06c0,.26,0,.41.13.44a.18.18,0,0,0,.13,0A.43.43,0,0,0,88,14a.34.34,0,0,0,.09-.26v-.13c0-.15-.22-.22-.57-.23Zm.33,4.54h0c-.06,0-.09.06-.09.17s0,.1.13.13l0,0c.06,0,.09-.06.09-.17A.17.17,0,0,0,87.89,18.17Zm.39-2.68a.14.14,0,0,0,0-.09h-.09c-.06,0-.09.07-.09.22s-.18.06-.18.09a0,0,0,0,0,0,0,.13.13,0,0,0,.09,0s0,0,0-.09v-.09C88.2,15.56,88.28,15.52,88.28,15.49Zm.92.15a.74.74,0,0,0-.08-.4H89a.13.13,0,0,0-.13.09.36.36,0,0,0-.09.26,2.36,2.36,0,0,0,.08.57c-.47,0-.74.11-.79.25a.24.24,0,0,0-.09.17c0,.06,0,.12.13.18a.3.3,0,0,0,.22.09.39.39,0,0,0,.18,0c.18,0,.3-.24.36-.66A.65.65,0,0,0,89.2,15.63Zm-.81,4.26a.12.12,0,0,0,.09,0v0c0-.06,0-.09-.13-.09h-.09c0-.12-.06-.18-.09-.18a0,0,0,0,0,0,0,.12.12,0,0,0,0,.09s0,0,.09,0h.09C88.32,19.83,88.36,19.89,88.39,19.89Zm-.06-1.81a.41.41,0,0,0,.22-.08.14.14,0,0,0,.09-.13.12.12,0,0,0,0-.09h0a.41.41,0,0,0-.17,0c-.09.06-.13.12-.13.18a.11.11,0,0,0,0,.09Zm.17-5.89c0,.06,0,.09,0,.09s.1-.08.13-.22V12a.78.78,0,0,0-.09-.35.12.12,0,0,0-.09,0c-.06,0-.1.07-.13.22A.63.63,0,0,0,88.5,12.19Zm1,.76a0,0,0,0,1,0,0,1.16,1.16,0,0,1-.38.3,1.49,1.49,0,0,0-.38.26.18.18,0,0,0,0,.13c0,.06.09.15.26.27h-.26a1.11,1.11,0,0,0-.27.43v.13c0,.12.09.21.26.27l.18-.35a1.13,1.13,0,0,0,.09-.48.36.36,0,0,0,.24-.15.32.32,0,0,1,.29-.1,1.83,1.83,0,0,0,.83.59.62.62,0,0,0,.23-.35v0a1.11,1.11,0,0,0-.15-.22l-.24-.31A.43.43,0,0,1,90,13v-.13a.54.54,0,0,0,.39.18.34.34,0,0,0,.17,0,.94.94,0,0,0,.54-.43h-.09a.49.49,0,0,1-.48-.27c.35,0,.6-.05.75-.08s.24-.08.27-.17v0a.7.7,0,0,0-.09-.31c-.09-.18-.2-.43-.34-.75l0-.09v-.22a.38.38,0,0,0,0-.17.24.24,0,0,0-.17,0h-.13c-.06.3-.2.44-.4.44a.69.69,0,0,1-.39-.18.83.83,0,0,0-.56-.85,1.36,1.36,0,0,1,.24-.32A1.83,1.83,0,0,0,90,9.26V9.13A.34.34,0,0,0,90,9a.77.77,0,0,0-.44-.23.56.56,0,0,1,0,.22.17.17,0,0,1,0,.13,3,3,0,0,1-.2.33.47.47,0,0,0-.11.24c0,.09.1.15.3.18-.15.18-.23.29-.23.35a.15.15,0,0,0,.09.14l.22.11a.49.49,0,0,1,.22.24h-.13c-.06,0-.09,0-.09,0a1.44,1.44,0,0,0-.09.22c-.29,0-.44,0-.44.08s0,0,0,0a1.55,1.55,0,0,1,.13.4c-.12.06-.18.1-.18.13s0,0,0,0l0,0c.06,0,.09,0,.09-.13V11.5c.15,0,.22-.06.22-.17a1.45,1.45,0,0,1,.05-.35h.31c.05.23.1.49.14.77a.79.79,0,0,0,.37.6.49.49,0,0,1-.16.26.37.37,0,0,0-.12.31c-.09,0-.17-.06-.24-.18l-.19-.31c-.06-.09-.12-.13-.17-.13s-.16.1-.22.3C89.4,12.72,89.51,12.84,89.5,13Zm-.78,14.47v0h0c-.15,0-.22.09-.22.26C88.63,27.65,88.72,27.57,88.72,27.43Zm.08-8.54a.36.36,0,0,0-.18,0c-.06.06-.09.1-.09.13a.14.14,0,0,0,0,.09s0,0,0,0a.5.5,0,0,0,.18-.09c.06-.06.09-.1.09-.13a.13.13,0,0,0,0-.09Zm-.24,7.26a0,0,0,0,0,0,0h0a.08.08,0,0,0,.09-.09V26C88.62,26.07,88.56,26.12,88.56,26.15ZM89,18.23a.13.13,0,0,0,0-.09h0q-.09,0-.09.13v.09c-.12.05-.18.1-.18.13a0,0,0,0,0,0,0h0a.08.08,0,0,0,.09-.09v-.09C89,18.3,89,18.26,89,18.23Zm3.31,5.33a4.58,4.58,0,0,0-.16-.75c-.17-.5-.36-1-.57-1.62s-.43-1.1-.66-1.57-.38-.71-.47-.71a.39.39,0,0,1,0,.18,2.44,2.44,0,0,1-.19.75l-.66,1.47q-.34.77-.57,1.42a1.68,1.68,0,0,0-.14.57.36.36,0,0,0,.08.27c0,.06.22.09.57.1l1.14,0q.57,0,1.59-.06Zm-2.85,2.16s-.08,0-.13.09-.13.1-.13.13a.15.15,0,0,0,.13.13.41.41,0,0,0,.18-.09q.09-.08.09-.13a.13.13,0,0,0,0-.09A.12.12,0,0,0,89.49,25.72Zm-.08,2.38h0c.06,0,.09-.06.09-.17s0-.12-.13-.18h-.09c-.06,0-.09.06-.09.17S89.3,28.07,89.41,28.1Zm.1-12.73a.4.4,0,0,0,.18-.09c.06-.06.09-.1.09-.13a.13.13,0,0,0,0-.09h0a.43.43,0,0,0-.18,0c-.09.06-.13.1-.13.13a.13.13,0,0,0,0,.09A.12.12,0,0,0,89.51,15.37Zm0-1.85h.09s0,0,0,0-.08.07-.22.13C89.45,13.59,89.48,13.53,89.54,13.53Zm.26-2.81V11h.09a.17.17,0,0,0,.13,0,.79.79,0,0,1,0-.22Zm.37,17s.08,0,.13-.08.09-.1.09-.13a.13.13,0,0,0,0-.09.15.15,0,0,0-.09,0s-.08,0-.13.09-.09.1-.09.13a.14.14,0,0,0,0,.09A.13.13,0,0,0,90.17,27.71Zm.11-19.24s-.07,0-.13.09-.09.1-.09.13a.12.12,0,0,0,0,.09,0,0,0,0,0,0,0,.48.48,0,0,0,.18-.09.28.28,0,0,0,.09-.13.14.14,0,0,0,0-.09A.13.13,0,0,0,90.27,8.48ZM90.34,16s.08,0,.13-.09a.25.25,0,0,0,.09-.13.14.14,0,0,0,0-.09.16.16,0,0,0-.09,0s-.07,0-.13.09-.09.1-.09.13a.14.14,0,0,0,0,.09A.13.13,0,0,0,90.34,16Zm.1-3.78h0s.06.06.09.18h-.26C90.31,12.29,90.35,12.23,90.44,12.18Zm0,14.17a.42.42,0,0,0,.18-.08.33.33,0,0,0,0-.13.13.13,0,0,0,0-.09s0,0,0,0-.07,0-.13.09-.13.1-.13.13a.13.13,0,0,0,0,.09A.12.12,0,0,0,90.45,26.35Zm0-16.64h0c-.06,0-.09.06-.09.17a.18.18,0,0,0,.13.18h0c.06,0,.09-.06.09-.18S90.56,9.77,90.48,9.71ZM90.87,16a.48.48,0,0,0,.18-.09c.06-.06.09-.1.09-.13a.13.13,0,0,0,0-.09.14.14,0,0,0-.09,0s-.07,0-.13.09-.13.1-.13.13a.12.12,0,0,0,0,.09A.11.11,0,0,0,90.87,16Zm0-1.1a.5.5,0,0,0,.18-.08c.06-.06.09-.1.09-.13a.13.13,0,0,0,0-.09.13.13,0,0,0-.09,0s-.07,0-.13.09-.13.1-.13.13a.12.12,0,0,0,0,.09A.11.11,0,0,0,90.88,14.87Zm.31-2.95s0,.08-.09.13a.48.48,0,0,1-.18.09.11.11,0,0,1-.09,0,.12.12,0,0,1,0-.09s0-.07.13-.13.1-.09.13-.09a.14.14,0,0,1,.09,0A.13.13,0,0,1,91.19,11.92ZM91,27.46a.41.41,0,0,0,.18-.09q.09-.08.09-.13a.13.13,0,0,0,0-.09.11.11,0,0,0-.09,0s-.08,0-.13.09-.09.1-.09.13a.13.13,0,0,0,0,.09A0,0,0,0,0,91,27.46ZM91.16,14a.4.4,0,0,0,.18-.09c.06-.06.09-.1.09-.13a.14.14,0,0,0,0-.09.12.12,0,0,0-.09,0s-.07,0-.13.09-.09.1-.09.13a.13.13,0,0,0,0,.09A0,0,0,0,0,91.16,14Zm.52-5.23a.43.43,0,0,0-.18,0,.27.27,0,0,0-.09.17.14.14,0,0,0,0,.09h0A.24.24,0,0,0,91.67,9a.13.13,0,0,0,.09-.13.13.13,0,0,0,0-.09Zm.56,4.06c0,.18-.06.28-.18.31a.69.69,0,0,0-.4.3c.09.17.19.27.3.27a.13.13,0,0,0,.09,0,.54.54,0,0,0,.31-.24A.83.83,0,0,0,92.5,13c0-.15-.1-.27-.3-.36A.8.8,0,0,1,92.23,12.86Zm-.31-3s-.07,0-.13.09-.13.1-.13.13a.12.12,0,0,0,0,.09.12.12,0,0,0,.09,0s.08,0,.13-.09A.28.28,0,0,0,92,10a.14.14,0,0,0,0-.09S92,9.87,91.93,9.87Zm.15,1.8h0c-.06,0-.09.06-.09.17s0,.11.13.14l0,0c.06,0,.09-.06.09-.17A.18.18,0,0,0,92.08,11.67Zm0,9.2a.43.43,0,0,0,.22-.09c.06,0,.09-.06.09-.09a.13.13,0,0,0,0-.09.12.12,0,0,0-.09,0s-.07,0-.13.09-.13.1-.13.13a.13.13,0,0,0,0,.09Zm.32-10.16s-.07,0-.13.09-.13.1-.13.13a.13.13,0,0,0,0,.09.12.12,0,0,0,.09,0,.42.42,0,0,0,.18-.08c.06-.06.09-.1.09-.13a.13.13,0,0,0,0-.09A.13.13,0,0,0,92.44,10.71Zm0,5.81a.48.48,0,0,0,.18-.09c.06-.06.09-.1.09-.13a.13.13,0,0,0,0-.09.13.13,0,0,0-.09,0s-.08,0-.13.09-.09.1-.09.13a.13.13,0,0,0,0,.09S92.46,16.52,92.49,16.52Zm.4-3.43,0,0q.09,0,.09-.18a.25.25,0,0,0-.13-.22h0c-.06,0-.09.07-.09.22S92.8,13.06,92.89,13.09ZM93,19.26a.48.48,0,0,0,.18-.09.34.34,0,0,0,0-.13.13.13,0,0,0,0-.09h0L93,19c-.09.06-.13.1-.13.13a.12.12,0,0,0,0,.09A.12.12,0,0,0,93,19.26Zm0-4.62,0,0c0,.09.13.15.31.18a.94.94,0,0,0,.31,0h.26a1.14,1.14,0,0,0,.58-.21.3.3,0,0,0,.13-.26v-.09c0-.15-.2-.34-.52-.58v.09a.5.5,0,0,1-.27.48c0-.12-.07-.17-.13-.18a.17.17,0,0,0-.13.17h-.31a2.19,2.19,0,0,0,0-.35.25.25,0,0,0,0-.17h-.09a.13.13,0,0,0-.09,0,.38.38,0,0,0-.14.26c0,.12.1.19.31.23C93.09,14.45,93,14.54,93,14.63Zm.26-2.81s-.07,0-.13.09S93,12,93,12a.11.11,0,0,0,0,.09.12.12,0,0,0,.09,0,.5.5,0,0,0,.18-.09.33.33,0,0,0,0-.13.13.13,0,0,0,0-.09A0,0,0,0,0,93.26,11.82Zm.65.54c0-.12,0-.19-.09-.22h0a.37.37,0,0,0-.27.13.48.48,0,0,0-.18.31l0,0c0,.06.06.09.17.09a1.76,1.76,0,0,0,.31,0c.06.15.1.22.13.22s0,0,0-.09v0c0-.06-.06-.09-.17-.09A1.94,1.94,0,0,0,93.92,12.36Zm-.53,3.34h0a.79.79,0,0,0,.22-.19.93.93,0,0,0,.18-.28.88.88,0,0,0-.27.17A1.27,1.27,0,0,0,93.38,15.7Zm.16,4.14a.46.46,0,0,0,.18-.09c.06-.06.09-.1.09-.13a.15.15,0,0,0-.13-.13s-.08,0-.13.09-.09.1-.09.13a.13.13,0,0,0,0,.09A0,0,0,0,0,93.54,19.84Zm.21-5.37a.14.14,0,0,1-.09,0s-.06-.06-.09-.18h.27A.14.14,0,0,1,93.75,14.47ZM94,27.2a.27.27,0,0,0,.18-.08.14.14,0,0,0,.09-.13.12.12,0,0,0,0-.09h0a.34.34,0,0,0-.17,0,.24.24,0,0,0-.09.17.11.11,0,0,0,0,.09Zm.57.32a.48.48,0,0,0,.18-.09c.06-.06.09-.1.09-.13a.15.15,0,0,0-.13-.13s-.07,0-.13.09-.13.1-.13.13a.13.13,0,0,0,0,.09A.11.11,0,0,0,94.53,27.51Zm.07-4.66a.73.73,0,0,0,.31-.08c.12-.06.18-.12.18-.17v0a.12.12,0,0,0-.09,0,.5.5,0,0,0-.27.08c-.15.06-.22.11-.22.17v0A.12.12,0,0,0,94.6,22.85Zm.22-6.07s-.07,0-.13.09-.13.1-.13.13a.12.12,0,0,0,0,.09h0a.46.46,0,0,0,.22-.09q.09,0,.09-.09a.15.15,0,0,0-.13-.13Zm.05,11.4h0c.06,0,.09-.06.09-.17s0-.12-.13-.18h0c-.06,0-.09.06-.09.17A.18.18,0,0,0,94.87,28.18Zm.39-11.88s.08,0,.13-.09.09-.1.09-.13a.13.13,0,0,0,0-.09.15.15,0,0,0-.09,0s-.08,0-.13.09-.09.1-.09.13a.13.13,0,0,0,0,.09A.13.13,0,0,0,95.27,16.3Zm.24,1.37s.07,0,.13-.09.09-.1.09-.13a.14.14,0,0,0,0-.09s0,0,0,0-.08,0-.13.09-.13.1-.13.13a.13.13,0,0,0,0,.09A.13.13,0,0,0,95.51,17.67Zm2.12,8.4s0,0,0,0v0a.08.08,0,0,0-.09-.09H97.5a.91.91,0,0,0,0-.26.65.65,0,0,0-.17-.49.63.63,0,0,0-.44-.23.47.47,0,0,0-.4.17.19.19,0,0,0,0,.13.66.66,0,0,0,.17.36h-.53v-.09a.18.18,0,0,0,0-.13.84.84,0,0,1-.26,0,1.71,1.71,0,0,0,0-.35c0-.09,0-.13,0-.13h0a.17.17,0,0,0-.13,0,.3.3,0,0,0-.14.26c0,.12.1.18.31.18v0c0,.15.1.22.3.23a1.87,1.87,0,0,0,0,.3.18.18,0,0,0,0,.13c0,.06.06.09.09.09h.09a.51.51,0,0,0,.24-.2.57.57,0,0,0,.12-.33,2,2,0,0,0,.35.22,1.07,1.07,0,0,0,.48.1C97.56,26,97.6,26.06,97.63,26.06Zm-1.74-7.38s-.08,0-.13.08-.13.1-.13.13a.13.13,0,0,0,0,.09.12.12,0,0,0,.09,0,.46.46,0,0,0,.18-.09.32.32,0,0,0,0-.13.13.13,0,0,0,0-.09A0,0,0,0,0,95.89,18.69Zm.21,3.83s-.07,0-.13.08-.13.1-.13.13a.13.13,0,0,0,0,.09.13.13,0,0,0,.09,0,.4.4,0,0,0,.18-.09c.06-.06.09-.1.09-.13a.13.13,0,0,0,0-.09A.12.12,0,0,0,96.1,22.52Zm.42,1.5a3.85,3.85,0,0,1-.66-.36v.13a.78.78,0,0,0,.13.49.69.69,0,0,0,.39.27h.13a.84.84,0,0,0,.27,0A.32.32,0,0,0,97,24.2,1.44,1.44,0,0,1,96.52,24Zm-.35,2.68a.5.5,0,0,0,.18-.09c.06-.06.09-.1.09-.13a.15.15,0,0,0-.13-.13s-.07,0-.13.08-.09.1-.09.13a.14.14,0,0,0,0,.09A0,0,0,0,0,96.17,26.7Zm.63-4a0,0,0,0,0,0,0l0,0c.06,0,.09,0,.09-.13v-.09c.15-.06.22-.1.22-.13a0,0,0,0,0,0,0h-.09c-.06,0-.09.06-.09.18S96.8,22.67,96.8,22.7ZM97.4,24h0c-.06,0-.09.06-.09.17a.17.17,0,0,0,.13.18h0c.06,0,.09-.06.09-.18S97.48,24.09,97.4,24Zm.18-.31a.44.44,0,0,0,.18-.09.26.26,0,0,0,.09-.13.15.15,0,0,0,0-.09.13.13,0,0,0-.09,0s-.07,0-.13.09-.09.1-.09.13a.12.12,0,0,0,0,.09A0,0,0,0,0,97.58,23.73Z"/><path d="M126.83,13.72a10.32,10.32,0,0,1,.31,2.78v.22a11.43,11.43,0,0,1-.9,4.39A17.66,17.66,0,0,1,124,24.95a.7.7,0,0,1-.29.24.68.68,0,0,0-.29.28,1.38,1.38,0,0,1-.51.5,7.42,7.42,0,0,0-.86.59c-.06,0-.1.11-.14.26s-.08.23-.14.26a.12.12,0,0,1-.09,0,.44.44,0,0,1-.18,0,.3.3,0,0,0-.13,0,.18.18,0,0,0-.13,0,.73.73,0,0,0-.16.31c0,.15-.1.23-.16.26q-1.29.55-2.35.89a16.42,16.42,0,0,1-2.3.54,22.92,22.92,0,0,1-2.8.27q-1.56.06-3.76,0l-.95,0-1.78.06c-.44,0-.85,0-1.23,0a3.39,3.39,0,0,1-.57-.05c-.56,0-.88-.06-1-.15a2.17,2.17,0,0,1-.12-1.06q0-.88,0-2t.1-2.07c0-.65.06-1,.06-1.19l.28-19.15a.17.17,0,0,1,0-.13.16.16,0,0,1,0-.13.45.45,0,0,0,.09-.22s.07,0,.22,0l6.78.1q2.9,0,5.76.35a2.49,2.49,0,0,1,.7.23l1.14.5,1.18.55a8.66,8.66,0,0,1,.79.41,2.33,2.33,0,0,1,.52.51,4.84,4.84,0,0,0,.56.6,12.18,12.18,0,0,0,1.09.89,5.33,5.33,0,0,1,1.08,1.07.62.62,0,0,1,.13.4.62.62,0,0,0,.13.4c.14.21.34.49.6.85a6.55,6.55,0,0,1,.73,1.37A15.17,15.17,0,0,1,126.83,13.72ZM105.45,24.94a1,1,0,0,0,.35-.08c.12,0,.18-.07.18-.13v0a.13.13,0,0,0-.09,0,.47.47,0,0,0-.26.08c-.15.06-.22.11-.22.17v0Zm.47-2.33s0,0,0,0h-.09c-.06,0-.09.06-.09.18s-.18.1-.18.13a0,0,0,0,0,0,0l0,0c.06,0,.09,0,.09-.13v-.09C105.85,22.69,105.93,22.64,105.93,22.61Zm-.24-10.83a.26.26,0,0,0,.13.22.76.76,0,0,1,.22.23.12.12,0,0,1,0,.09c0,.09-.08.19-.22.31a.81.81,0,0,0,.26,0,.29.29,0,0,0,.22-.09.39.39,0,0,0,.14-.26v-.09a2.07,2.07,0,0,0-.15-.4l-.15-.31a1.1,1.1,0,0,0,.39.1.32.32,0,0,0,.22-.09.3.3,0,0,0,.13-.26v-.13a2.29,2.29,0,0,0-.26-.53.55.55,0,0,0-.39-.18h-.09a1.12,1.12,0,0,0,0-.27.34.34,0,0,0,0-.22h-.09a.18.18,0,0,0-.13,0,.43.43,0,0,0-.09.26c0,.12.1.18.3.18a.66.66,0,0,0-.18.3l0,0a.18.18,0,0,0,0,.13l.11.22a.9.9,0,0,1,.06.39C105.86,11.64,105.69,11.72,105.69,11.78Zm.25,7.27s0,0,0,0,.09-.06.09-.18,0-.12-.13-.18h-.09c-.06,0-.09.06-.09.18S105.82,19,105.94,19Zm.22,3.09,0-.09v0c0-.06-.06-.09-.17-.09s-.1-.18-.13-.18,0,0,0,0l0,0c0,.06,0,.09.13.09H106C106.05,22.06,106.1,22.13,106.15,22.13Zm.06-1.06s-.07,0-.13.09-.09.1-.09.13a.13.13,0,0,0,0,.09s0,0,0,0a.48.48,0,0,0,.18-.09c.06-.06.09-.1.09-.13a.12.12,0,0,0,0-.09A.15.15,0,0,0,106.21,21.08Zm.19,4.85a.12.12,0,0,0,0-.09h0c-.06,0-.09,0-.09.13v.09c-.15,0-.22.07-.22.13h.09s0,0,0,0,.09-.06.09-.17S106.41,26,106.41,25.92Zm-.08-12.24s-.07,0-.13.09-.09.1-.09.13a.12.12,0,0,0,0,.09,0,0,0,0,0,0,0,.48.48,0,0,0,.18-.09.28.28,0,0,0,.09-.13.14.14,0,0,0,0-.09A.15.15,0,0,0,106.32,13.68Zm-.12-6.91c0,.15,0,.23.08.27a.14.14,0,0,0,.09,0A.45.45,0,0,0,106.6,7a.42.42,0,0,0,.14-.31V6.6c0-.15-.19-.24-.48-.27A2.57,2.57,0,0,0,106.2,6.77Zm.15,17.08a.29.29,0,0,1,.26.14s0,0,0,0,.1-.06.13-.17a.25.25,0,0,0-.22-.27h0c-.15,0-.24.09-.27.26Zm-.07-1a.53.53,0,0,0,.08.31c0,.06.06.09.09.09s.06-.07.09-.22v-.09a.77.77,0,0,0-.08-.35.13.13,0,0,0-.09,0s-.06.07-.09.22Zm.32-3.74a.77.77,0,0,0-.08-.35.13.13,0,0,0-.09,0s-.06.07-.09.22V19a.51.51,0,0,0,.08.31c0,.06.06.09.09.09s.06-.07.09-.22Zm.85-9.8h-.09l-.35.19a.58.58,0,0,1-.31.11l0,0c-.09,0-.15-.09-.17-.27v.18c0,.26.05.43.17.49a.3.3,0,0,0,.22.09A.26.26,0,0,0,107,10a1,1,0,0,0,.4-.3.57.57,0,0,0,.14-.31v0A.14.14,0,0,0,107.44,9.3Zm-.8,15.79,0,0c.06,0,.09-.06.09-.17a.18.18,0,0,0-.13-.18h0c-.06,0-.09.06-.09.17S106.55,25.06,106.64,25.09Zm.38-2.29a.18.18,0,0,0,.09.18h0a.2.2,0,0,0,.13,0,.35.35,0,0,0,.09-.26c0-.12-.1-.18-.3-.18v-.09c0-.12-.09-.18-.26-.18v-.57h.26c.06.15.1.22.13.22s.06,0,.09-.09v0c0-.06-.07-.09-.22-.09s-.06-.17-.09-.17h0c-.09.06-.13.12-.13.17-.18.06-.27.16-.27.3h0c0,.18.07.26.22.27v.09a.08.08,0,0,0,.09.09l.17.09A1.32,1.32,0,0,0,107,22.81Zm-.15-4.49v0c.15,0,.24-.09.27-.26h-.09a.27.27,0,0,1-.22-.14.12.12,0,0,0-.09,0c-.06,0-.1.06-.13.17S106.7,18.31,106.87,18.31Zm.19,2.11,0,0h-.09c-.06,0-.09.06-.09.17s-.18.1-.18.13,0,0,0,0l0,0q.09,0,.09-.13v-.09C107,20.53,107.06,20.49,107.06,20.43ZM107,15.67a.44.44,0,0,0,.18-.09.32.32,0,0,0,0-.13.13.13,0,0,0,0-.09h0l-.13,0c-.09.06-.13.1-.13.13a.13.13,0,0,0,0,.09A.12.12,0,0,0,107,15.67Zm.73-3.27a.86.86,0,0,0-.19-.29.72.72,0,0,0-.26-.18h0a.36.36,0,0,0-.27.17.64.64,0,0,0,0,.26.8.8,0,0,0,0,.22.9.9,0,0,0,.21.53.39.39,0,0,0,.31.18h0c.12,0,.21-.25.27-.66A.67.67,0,0,0,107.73,12.4ZM107.24,8a.34.34,0,0,0-.13,0c-.09.06-.13.12-.13.17a.13.13,0,0,0,0,.09h0a.43.43,0,0,0,.22-.09.12.12,0,0,0,0-.09.18.18,0,0,0,0-.13Zm-.12,17.3a.48.48,0,0,0,.18-.09c.06-.06.09-.1.09-.13a.13.13,0,0,0,0-.09.16.16,0,0,0-.09,0s-.07,0-.13.09-.13.1-.13.13a.13.13,0,0,0,0,.09A.14.14,0,0,0,107.12,25.27Zm.25-7.75s-.08,0-.13.09-.13.1-.13.13a.13.13,0,0,0,0,.09.14.14,0,0,0,.09,0,.46.46,0,0,0,.18-.09c.06-.06.09-.1.09-.13a.13.13,0,0,0,0-.09A.14.14,0,0,0,107.37,17.53Zm.13-9s-.07,0-.13.09-.13.1-.13.13a.12.12,0,0,0,0,.09.12.12,0,0,0,.09,0,.44.44,0,0,0,.18-.09.28.28,0,0,0,.09-.13.14.14,0,0,0,0-.09A.14.14,0,0,0,107.5,8.5Zm0,12.37a.44.44,0,0,0,.18-.09.14.14,0,0,0,.09-.13.13.13,0,0,0,0-.09h0a.39.39,0,0,0-.18,0c-.06.06-.09.1-.09.13a.18.18,0,0,0,0,.13Zm.07-4.93a.42.42,0,0,0,.18-.08.14.14,0,0,0,.09-.13.13.13,0,0,0,0-.09h0a.39.39,0,0,0-.18,0c-.06.06-.09.1-.09.13a.17.17,0,0,0,0,.13Zm0-.79a.46.46,0,0,0,.18-.08.28.28,0,0,0,.09-.13.14.14,0,0,0,0-.09.13.13,0,0,0-.09,0s-.07,0-.13.09-.09.1-.09.13a.12.12,0,0,0,0,.09S107.5,15.15,107.53,15.15Zm.24-4.7a.36.36,0,0,0-.18,0q-.09.08-.09.13a.18.18,0,0,0,0,.13h0a.5.5,0,0,0,.18-.08.15.15,0,0,0,.09-.13.13.13,0,0,0,0-.09Zm-.2,13.77a.35.35,0,0,0,.13.31.13.13,0,0,0,.09,0s.07,0,.13-.09a.27.27,0,0,0,0-.17,2,2,0,0,0-.08-.44c.21-.09.31-.17.31-.26v-.09a.43.43,0,0,0-.26-.18h0a.29.29,0,0,0-.22.09.12.12,0,0,0,0,.09c0,.09.08.21.26.36C107.68,24,107.58,24.08,107.58,24.22Zm.81-4.39a.24.24,0,0,0,.27-.17,1.52,1.52,0,0,0,.14-.44h0c.15,0,.22-.08.22-.26s.18-.1.18-.13a0,0,0,0,0,0,0h0a.08.08,0,0,0-.09.09V19h0q-.22,0-.23.26h-.26a.75.75,0,0,0,0-.26.29.29,0,0,0-.09-.22.47.47,0,0,0-.22,0h-.09a.67.67,0,0,0-.35.17.4.4,0,0,0-.14.26v.09h.84a.76.76,0,0,1-.2.26.37.37,0,0,0-.12.3c-.2,0-.31.06-.31.17a.29.29,0,0,0,.13.26.13.13,0,0,0,.09,0,.13.13,0,0,0,.09,0s0,0,0-.13a1.41,1.41,0,0,0,0-.31A.37.37,0,0,0,108.39,19.83Zm-.48-6.26a0,0,0,0,0,0,0v0a.08.08,0,0,0,.09.09H108v.09a.4.4,0,0,0,.26.44c.06.15.1.22.13.22s.06,0,.09-.09v0c0-.06-.07-.09-.22-.09v-.53h0s.12-.06.27-.17a.37.37,0,0,1,.22-.13s0,0,0,0l0,.22a1.61,1.61,0,0,0,.17.51.69.69,0,0,0,.35.33h.09a.72.72,0,0,0,.44-.26.24.24,0,0,0,.09-.17V14l-.2-.22a1.32,1.32,0,0,1-.19-.35.54.54,0,0,1,0-.22,1.3,1.3,0,0,1,0-.31H110a.68.68,0,0,1,.11-.21,1.2,1.2,0,0,0,.16-.39.53.53,0,0,0,0-.22V12c0-.09-.13-.13-.3-.14a1.65,1.65,0,0,0-.32,1.1h-.26a3.06,3.06,0,0,0-.75.08c-.24.06-.36.24-.36.57v.18H108C108,13.63,107.94,13.57,107.91,13.57Zm0-1.89a0,0,0,0,0,0,0l0,0c.06,0,.09,0,.09-.13v-.09c.15-.05.22-.1.22-.13a0,0,0,0,0,0,0h-.09c-.06,0-.09.06-.09.17S107.89,11.65,107.89,11.68Zm.3,6.43-.13,0c-.09.06-.13.12-.13.18a.11.11,0,0,0,0,.09h0a.43.43,0,0,0,.22-.08.13.13,0,0,0,0-.09.17.17,0,0,0,0-.13Zm-.27-8.9s0,0,0,0l0,0c.06,0,.09,0,.09-.13V9.08c.15-.05.22-.1.22-.13s0,0,0,0h-.09c-.06,0-.09.06-.09.17S107.93,9.19,107.93,9.22Zm.52,15.41a.67.67,0,0,0-.08-.35.13.13,0,0,0-.09,0s-.06,0-.09.09a.34.34,0,0,0-.09.26,1.77,1.77,0,0,0,0,.39c-.12.06-.18.1-.18.13s0,0,0,0h0a.08.08,0,0,0,.09-.09V25Q108.45,24.85,108.45,24.63Zm-.21-9.56a.27.27,0,0,0-.13.08c-.09.06-.13.1-.13.13a.16.16,0,0,0,.13.13.42.42,0,0,0,.18-.09.36.36,0,0,0,0-.13.14.14,0,0,0,0-.09A0,0,0,0,0,108.24,15.08Zm-.1-2.12a.44.44,0,0,0,.18-.09.34.34,0,0,0,0-.13.13.13,0,0,0,0-.09,0,0,0,0,0,0,0s-.07,0-.13.09-.13.1-.13.13a.11.11,0,0,0,0,.09A.12.12,0,0,0,108.14,13Zm.18-3.34s-.08,0-.13.09-.13.1-.13.13a.13.13,0,0,0,0,.09.12.12,0,0,0,.09,0,.5.5,0,0,0,.18-.08.37.37,0,0,0,0-.13.12.12,0,0,0,0-.09A0,0,0,0,0,108.32,9.62Zm.09,11.75s-.07,0-.13.09-.13.1-.13.13a.13.13,0,0,0,0,.09.13.13,0,0,0,.09,0,.48.48,0,0,0,.18-.09c.06-.06.09-.1.09-.13a.13.13,0,0,0,0-.09A.15.15,0,0,0,108.41,21.37Zm.1-.92c0,.3.07.49.21.57a3.93,3.93,0,0,0,.57.41,1,1,0,0,0,.09-.35v-.13a.83.83,0,0,0-.19-.22,1.49,1.49,0,0,0-.24-.16.34.34,0,0,1-.17-.24c.12-.06.18-.1.18-.13a0,0,0,0,0,0,0h0c-.06,0-.09,0-.09.08v.09h-.26Zm.28-3.7a.39.39,0,0,0-.18,0c-.06.06-.09.1-.09.13a.18.18,0,0,0,0,.13h0a.47.47,0,0,0,.18-.09.15.15,0,0,0,.09-.13.13.13,0,0,0,0-.09Zm.79,9.08c.32,0,.49-.14.49-.43v-.13a.68.68,0,0,0-.22,0,.21.21,0,0,0-.22.13.46.46,0,0,1-.4.17,1.68,1.68,0,0,0,0-.31c0-.12,0-.19-.09-.22h0a.38.38,0,0,0-.27.13.49.49,0,0,0-.18.3l0,0c0,.06.06.09.17.09l.31,0v.27A2,2,0,0,0,109.58,25.84Zm-.46-10.53c0,.17,0,.26.09.26a.13.13,0,0,0,.09,0,.2.2,0,0,0,.14-.22.43.43,0,0,0,0-.18h.26c0,.47,0,.72.17.75s0,0,0,0,.16-.06.22-.17a.75.75,0,0,0,0-.26v-.17c0-.12-.14-.18-.35-.18h-.13c0-.12-.06-.18-.09-.18h0c-.09.06-.13.12-.13.17h-.27C109.06,15,109,15,109,15s0,0,0,0l0,0c0,.06,0,.09.13.09h.09Zm0-6.38h0c-.06,0-.09.06-.09.17a.17.17,0,0,0,.13.18h0q.08,0,.09-.18C109.21,9,109.16,9,109.08,8.93Zm.37,2a.17.17,0,0,0-.13,0,.65.65,0,0,0-.18.31v.18a.46.46,0,0,0,0,.22.18.18,0,0,0,.17.13h.09a.71.71,0,0,1,0-.22.2.2,0,0,1,.14-.22.36.36,0,0,0,.18-.35H110v-.27a.79.79,0,0,0-.08-.49.12.12,0,0,0-.09,0,.75.75,0,0,0-.4.21c-.06-.12-.1-.18-.13-.18a0,0,0,0,0,0,0v0a.08.08,0,0,0,.09.09h.09a.5.5,0,0,0,.15.27.38.38,0,0,1,.11.31A.48.48,0,0,0,109.45,11Zm.12,15.45a.44.44,0,0,0,.18-.09c.06-.06.09-.1.09-.13a.15.15,0,0,0,0-.09.13.13,0,0,0-.09,0s-.07,0-.13.09-.13.1-.13.13a.13.13,0,0,0,0,.09A.12.12,0,0,0,109.57,26.41Zm.06-9.73a.35.35,0,0,0,.08.26.18.18,0,0,0,.13,0h.09a.25.25,0,0,0,0-.17,1.3,1.3,0,0,0,0-.31q.18-.08.18-.13s0,0,0,0h0c-.06,0-.09,0-.09.08v.09C109.73,16.5,109.63,16.56,109.63,16.68ZM110,7.75a.39.39,0,0,0-.18,0c-.09.06-.13.1-.13.13a.13.13,0,0,0,0,.09.13.13,0,0,0,.09,0A.46.46,0,0,0,110,8c.06-.06.09-.1.09-.13a.13.13,0,0,0,0-.09Zm.08,9.82s-.08,0-.13.09-.09.1-.09.13a.13.13,0,0,0,0,.09,0,0,0,0,0,0,0,.48.48,0,0,0,.18-.09c.06-.06.09-.1.09-.13a.13.13,0,0,0,0-.09A.13.13,0,0,0,110.1,17.57Zm-.15.88a1.13,1.13,0,0,0,.31-.08c.12-.06.18-.12.18-.17v0h0a1,1,0,0,0-.31.08c-.12.06-.18.12-.18.17v0Zm.39-8.45a.49.49,0,0,0,.36-.13.41.41,0,0,0,.13-.31V9.43a.4.4,0,0,0-.26-.31h-.09c-.12,0-.27.1-.45.3l0,0a0,0,0,0,1,0,0,.54.54,0,0,1,0,.22v.22c0,.06-.06.09-.09.09h0A1.46,1.46,0,0,0,110.34,10Zm0,3.25a.26.26,0,0,0,.18-.09.14.14,0,0,0,.09-.13.13.13,0,0,0,0-.09h0a.39.39,0,0,0-.18,0,.27.27,0,0,0-.09.17.14.14,0,0,0,0,.09ZM110.65,7h0c-.15,0-.24.08-.27.26s.07.18.13.18h.09a1.23,1.23,0,0,0,.31-.17A.25.25,0,0,0,110.65,7Zm9.72,11.48a11.31,11.31,0,0,0,.26-1.25,10,10,0,0,0,.1-1.32,4.11,4.11,0,0,0-.11-1.1,3.35,3.35,0,0,0-.26-.6c-.14-.28-.31-.57-.49-.87l-.51-.84A3.32,3.32,0,0,0,119,12a.62.62,0,0,0-.39-.14.86.86,0,0,1-.44-.14.59.59,0,0,1-.26-.4.6.6,0,0,0-.26-.4,5.56,5.56,0,0,0-1.27-.5,17.46,17.46,0,0,0-2-.47,15.26,15.26,0,0,0-1.58-.11h-.4a2,2,0,0,0-1.37.42v.27a.37.37,0,0,1,0,.17.18.18,0,0,1,0,.13c0,.59-.06,1-.06,1.28v.57a1.13,1.13,0,0,1,0,.35l-.18.53h.17a.17.17,0,0,1,.13.17.13.13,0,0,1,0,.09.17.17,0,0,1-.17.09.32.32,0,0,1-.13,0h-.09c-.09,0-.13.07-.14.22s.07.06.13.18a1.5,1.5,0,0,1,.13.4,1.38,1.38,0,0,1,0,.4v.26c0,.32-.05.56-.05.7,0,.32,0,.85,0,1.58s0,1.49,0,2.27,0,1.46,0,2a4.17,4.17,0,0,0,.05.92,2.4,2.4,0,0,0,.68.16,8.56,8.56,0,0,0,1.17.08,13.35,13.35,0,0,0,1.34,0c.46,0,.86-.08,1.21-.14a4,4,0,0,0,1-.34,11,11,0,0,0,1-.58c.34-.21.65-.43.93-.65a4.18,4.18,0,0,0,.65-.59,7.5,7.5,0,0,1,.58-.59,2.73,2.73,0,0,0,.54-.76A5.13,5.13,0,0,0,120.36,18.45Zm-7.2,5.81a.46.46,0,0,0,.18-.08.36.36,0,0,0,0-.13.13.13,0,0,0,0-.09,0,0,0,0,0,0,0s-.07,0-.13.09-.13.1-.13.13a.16.16,0,0,0,.13.13Zm1.62.29a.48.48,0,0,0,.18-.09c.06-.06.09-.1.09-.13a.13.13,0,0,0,0-.09.13.13,0,0,0-.09,0s-.07,0-.13.09-.09.1-.09.13a.12.12,0,0,0,0,.09A0,0,0,0,0,114.79,24.55Zm.81-.83a.43.43,0,0,0,.22-.08.13.13,0,0,0,0-.09.18.18,0,0,0,0-.13h0a.31.31,0,0,0-.13,0c-.09.06-.13.12-.13.17a.12.12,0,0,0,0,.09Zm1.35,1.38a.41.41,0,0,0,.22-.08.14.14,0,0,0,0-.09.14.14,0,0,0,0-.09s0,0,0,0-.08,0-.13.09-.13.1-.13.13a.12.12,0,0,0,0,.09Zm1.18-17.68h0c-.06,0-.09.06-.09.17s0,.1.13.13l0,0c.06,0,.09-.06.09-.17S118.21,7.49,118.13,7.43Zm.86,1a.47.47,0,0,0-.27.08c-.15.06-.22.12-.22.17v0a.14.14,0,0,0,.09,0,.74.74,0,0,0,.31-.08c.12-.06.18-.12.18-.17v0A.12.12,0,0,0,119,8.41Zm0-1.1s-.07,0-.13.09-.09.1-.09.13a.13.13,0,0,0,0,.09s0,0,0,0a.48.48,0,0,0,.18-.09.28.28,0,0,0,.09-.13.13.13,0,0,0,0-.09A.12.12,0,0,0,119,7.31Zm.68,1.55a0,0,0,0,0,0,0h0a.08.08,0,0,0,.09-.09V8.73c.15-.06.22-.1.22-.13a.12.12,0,0,0,0-.09H120c-.06,0-.09.07-.09.22S119.69,8.83,119.69,8.86Zm.66.1s-.07,0-.13.09-.09.1-.09.13a.12.12,0,0,0,0,.09,0,0,0,0,0,0,0,.46.46,0,0,0,.18-.09.26.26,0,0,0,.09-.13.14.14,0,0,0,0-.09A.13.13,0,0,0,120.35,9Zm.15,1.72s.08,0,.13-.09a.28.28,0,0,0,.09-.13.14.14,0,0,0,0-.09.13.13,0,0,0-.09,0s-.07,0-.13.09-.09.1-.09.13a.13.13,0,0,0,0,.09A.12.12,0,0,0,120.5,10.68Zm.11-1.14s-.08,0-.13.09a.24.24,0,0,0-.09.13.14.14,0,0,0,0,.09h0a.25.25,0,0,0,.18-.09c.06,0,.09-.06.09-.09a.15.15,0,0,0-.13-.13Zm.88,3.31a.17.17,0,0,0,.13,0,.61.61,0,0,0,.14-.44,1.55,1.55,0,0,0-.12-.62.49.49,0,0,0-.39-.27h0a1.62,1.62,0,0,0,.14-.53c0-.09,0-.13-.09-.13a.89.89,0,0,0-.53.39,1.26,1.26,0,0,0-.28.79l0,0c0,.29.26.48.78.54C121.29,12.76,121.39,12.85,121.48,12.85ZM121,14a.48.48,0,0,0,.18-.09.33.33,0,0,0,0-.13.12.12,0,0,0,0-.09s0,0,0,0-.07,0-.13.09-.13.1-.13.13a.12.12,0,0,0,0,.09A.13.13,0,0,0,121,14Zm.13-5.68h0c-.06,0-.09.06-.09.17s0,.1.13.13l0,0c.06,0,.09-.06.09-.17A.17.17,0,0,0,121.1,8.31Zm-.1,3.92a.14.14,0,0,1,0-.09v0c.06,0,.1.08.13.22C121.06,12.31,121,12.29,121,12.23Zm.1-.92a0,0,0,0,0,0,0,.13.13,0,0,0,0,.09s0,0,.09,0h.09C121.16,11.36,121.14,11.3,121.11,11.3Zm.33-1.76s-.07,0-.13.09-.13.1-.13.13a.14.14,0,0,0,0,.09h0a.42.42,0,0,0,.22-.08q.09,0,.09-.09a.12.12,0,0,0,0-.09A.12.12,0,0,0,121.44,9.55Zm-.09,2.86v0c0,.06-.06.1-.18.13v-.27A.17.17,0,0,1,121.35,12.41Zm3.31,5.18c.12,0,.21-.24.27-.59,0,.06,0,.09-.09.09a.18.18,0,0,1-.13,0,.78.78,0,0,1-.44-.23.39.39,0,0,1-.17-.31l0,0q0-.18.53-.26a1.4,1.4,0,0,0-.68-.3,1.37,1.37,0,0,1-.68-.3c0-.12-.06-.18-.09-.18h0c-.09.06-.13.11-.13.17a2.5,2.5,0,0,0-.31-.23h0a.18.18,0,0,0-.18.09,1.16,1.16,0,0,0-.24.22.54.54,0,0,1-.33.17,4.84,4.84,0,0,0,.25-.57,3.25,3.25,0,0,0,.16-.57v0a.29.29,0,0,0-.13-.26.17.17,0,0,0-.13,0,1,1,0,0,0-.4.13c-.06-.12-.1-.18-.13-.18s0,0,0,0l0,0c0,.06,0,.09.13.09h.09c.15.09.22.18.21.27v0a1.54,1.54,0,0,1-.16.37.78.78,0,0,0-.12.37c0,.12.1.22.3.31a.43.43,0,0,1,.17.24,2.32,2.32,0,0,1,.06.35,1.79,1.79,0,0,0,.06.35c0,.1.11.15.26.16a2.27,2.27,0,0,1,.2-.32.51.51,0,0,1,.33-.19v.84c-.12,0-.18.06-.18.09a0,0,0,0,0,0,0,.12.12,0,0,0,.09,0s0,0,0-.09v-.09a.27.27,0,0,1,.21.31,2.32,2.32,0,0,0,0,.49c-.15-.15-.26-.23-.35-.23h0a.18.18,0,0,0-.09.18v.09a.29.29,0,0,0,.17.22,0,0,0,0,0,0,0c.09,0,.18-.1.27-.3h.09a.5.5,0,0,0,.49-.26Zm-3.11-3.85,0,0a1.35,1.35,0,0,0,.25-.17.63.63,0,0,0,.2-.26,1.22,1.22,0,0,0-.31.17A1.22,1.22,0,0,0,121.55,13.73Zm.39,3.39a.73.73,0,0,0-.08-.31c0-.06-.06-.09-.09-.09s-.06.07-.09.22V17a.56.56,0,0,0,.08.31c0,.06.06.09.09.09s.06-.06.09-.18Zm.23-6.34h0c-.06,0-.09.06-.09.17s0,.1.13.13l0,0c.06,0,.09-.06.09-.18A.18.18,0,0,0,122.17,10.79Zm.06,7.84a.44.44,0,0,0,.22-.08.14.14,0,0,0,.09-.13.12.12,0,0,0,0-.09h0a.37.37,0,0,0-.17,0c-.09.06-.14.12-.14.17a.14.14,0,0,0,0,.09Zm.25-5s-.07,0-.13.09-.13.1-.13.13a.12.12,0,0,0,0,.09.12.12,0,0,0,.09,0,.44.44,0,0,0,.18-.09.26.26,0,0,0,.09-.13.13.13,0,0,0,0-.09A.13.13,0,0,0,122.48,13.66Zm.21,1a.4.4,0,0,0,.13.35q0,.09.09.09c.09,0,.15-.09.18-.26v-.35a2,2,0,0,0,0-.44,1.32,1.32,0,0,0-.08-.31h0s-.06.09-.09.26A2.17,2.17,0,0,0,122.69,14.63Zm.38,1c0,.12.07.18.13.18h0a.18.18,0,0,0,.09-.17Zm.2,1s0-.07.13-.13.1-.09.13-.09a0,0,0,0,1,0,0,.14.14,0,0,1,0,.09.38.38,0,0,1,0,.13.42.42,0,0,1-.18.09.12.12,0,0,1-.09,0A.14.14,0,0,1,123.27,16.62Zm.3-2.68s-.07,0-.13.09-.13.1-.13.13a.12.12,0,0,0,0,.09.12.12,0,0,0,.09,0,.44.44,0,0,0,.18-.09.34.34,0,0,0,0-.13.13.13,0,0,0,0-.09S123.6,13.93,123.57,13.93Zm-.1.7h0c-.06,0-.09.06-.09.17s0,.1.13.13l0,0c.06,0,.09-.06.09-.18A.18.18,0,0,0,123.48,14.64Zm.27,3s0,0,0,0l0,0c0,.06,0,.09.13.09h.09C123.81,17.69,123.77,17.64,123.74,17.64Zm.32-3.83h0c-.06,0-.09.06-.09.18s0,.1.13.13l0,0c.06,0,.09-.06.09-.17S124.15,13.87,124.06,13.81Zm.73-2.06a.17.17,0,0,0,0-.13.19.19,0,0,0-.13,0h-.13a1.2,1.2,0,0,0-.33.24,1,1,0,0,0-.2.24h.79c.05.15.1.22.13.22s.06,0,.09-.09v0c0-.06-.07-.09-.22-.09A1.3,1.3,0,0,0,124.79,11.75Zm-.44,2.94a.13.13,0,0,0,0-.09h0c-.06,0-.09,0-.09.13v.09c-.15,0-.22.07-.22.13H124s0,0,0,0,.09-.06.09-.18S124.36,14.72,124.36,14.69Zm.05-3.74s-.07,0-.13.09-.09.1-.09.13a.12.12,0,0,0,0,.09.13.13,0,0,0,.09,0s.07,0,.13-.09.09-.1.09-.13a.15.15,0,0,0-.13-.13Zm.07,7.44s.07,0,.13-.09.09-.1.09-.13a.12.12,0,0,0,0-.09s0,0,0,0-.07,0-.13.09-.13.1-.13.13a.14.14,0,0,0,0,.09A.14.14,0,0,0,124.48,18.4Zm.55-1.62a.48.48,0,0,0,.18-.09.29.29,0,0,0,.09-.13.14.14,0,0,0,0-.09.13.13,0,0,0-.09,0s-.07,0-.13.09-.13.1-.13.13a.13.13,0,0,0,0,.09A.13.13,0,0,0,125,16.78Zm0-2.47a.46.46,0,0,0,.18-.09c.06-.06.09-.1.09-.13a.13.13,0,0,0,0-.09.13.13,0,0,0-.09,0s-.07,0-.13.09-.13.1-.13.13a.14.14,0,0,0,0,.09A.12.12,0,0,0,125.06,14.31Zm.49,3a.25.25,0,0,0,.18-.09.14.14,0,0,0,.09-.13.13.13,0,0,0,0-.09h0a.39.39,0,0,0-.18,0,.25.25,0,0,0-.09.17.12.12,0,0,0,0,.09Zm.05-.53s.08,0,.13-.09.09-.1.09-.13a.16.16,0,0,0-.13-.13s-.08,0-.13.09-.09.1-.09.13a.12.12,0,0,0,0,.09A.12.12,0,0,0,125.6,16.78Z"/><path d="M149.59,14.45c0,1.94,0,3.94,0,6v.35a7.71,7.71,0,0,1-.1,1.19,6.78,6.78,0,0,0-.2,1.45l0,2.47a5.34,5.34,0,0,0,.16,1.28,6.69,6.69,0,0,1,.07,1.1v.35a5.58,5.58,0,0,1-.19,1,4.29,4.29,0,0,0-.15,1,2.53,2.53,0,0,0,0,.49,2,2,0,0,0,.08.39c0,.12,0,.18.09.18a.13.13,0,0,0,.09,0c-.15.2-.5.3-1.06.29a.13.13,0,0,1-.09,0h-.66c-.47,0-1,0-1.45,0h-.92l-1,0h-.88a.82.82,0,0,1-.48-.1,1.73,1.73,0,0,1-.2-1.1v-.57c.07-.91.17-1.9.29-3s.21-2.09.29-3.05v-.44a2.83,2.83,0,0,0-.24-1.46.62.62,0,0,0-.48-.27h-.31a4,4,0,0,0-.57,0c-.35,0-.72.06-1.1.12a7.18,7.18,0,0,1-1.1.07.35.35,0,0,0,0-.13.26.26,0,0,0-.22-.13s-.05,0-.07.13-.08.13-.2.13-.22,0-.22-.09a0,0,0,0,1,0,0v0a.08.08,0,0,0-.09-.09h-.49a.67.67,0,0,1-.22,0,1.29,1.29,0,0,1-.39,0,2.09,2.09,0,0,0-.4-.05.89.89,0,0,0-.66.21,1.56,1.56,0,0,0-.37.92,4.92,4.92,0,0,0-.05.66,5.24,5.24,0,0,0,0,.66q0,.75,0,1.41c0,.2,0,.5,0,.9s0,.81.07,1.24,0,.83,0,1.21a1.09,1.09,0,0,1-.19.74l-1,0-2.16.06c-.56,0-1.07,0-1.54,0a4.46,4.46,0,0,1-.7-.06,2.65,2.65,0,0,1-1.19-.15s0-.12,0-.35v-.79c0-.29,0-.63,0-1s0-.75,0-1.1q0-.92,0-2c0-.71.06-1.42.1-2.16s.08-1.45.12-2.16.08-1.35.12-1.94a1.86,1.86,0,0,0-.12-.66,1.29,1.29,0,0,1-.12-.57v-.13a6.77,6.77,0,0,0,.06-.79v-.44q0-.7,0-1.76v-.71a22.75,22.75,0,0,1,.17-2.37c.1-1,.16-1.83.17-2.42a5.6,5.6,0,0,1,.05-.7V7.47a2.52,2.52,0,0,0,0-.49,4.07,4.07,0,0,1-.08-.7.89.89,0,0,1,0-.26.34.34,0,0,1,.31-.3h.13a2.9,2.9,0,0,1,.61.09,8.39,8.39,0,0,0,1.14.15h.26a2.61,2.61,0,0,0,.84-.12,6.61,6.61,0,0,1,1.37-.16.5.5,0,0,1,.37.16.62.62,0,0,0,.46.16,3.8,3.8,0,0,1,.4-.26.69.69,0,0,1,.31-.08.18.18,0,0,1,.13,0,1.79,1.79,0,0,1,.21.84l0,1.28q-.1.75-.18,1.5c-.05.49-.08.93-.09,1.32s0,.93-.06,1.47-.06,1-.07,1.52a6.63,6.63,0,0,0-.05.7,3.48,3.48,0,0,0,0,.57,1.31,1.31,0,0,0,.08.66,3.2,3.2,0,0,0,1.1.1c.35,0,.7.05,1.05.06s.78,0,1.19,0q1.19,0,2.18,0l1,0a1.4,1.4,0,0,0,.25-.77,12.5,12.5,0,0,0,.09-1.39c0-.53,0-1.08,0-1.67s0-1.13,0-1.62,0-1.18,0-1.79-.06-1.15-.09-1.65c0-.32,0-.63,0-.93a2.07,2.07,0,0,1,.05-.39,1.22,1.22,0,0,1,.19-.75V4.45l1.23,0,2.2-.06,2.11,0a2.89,2.89,0,0,1,1,.15A.61.61,0,0,1,150,5v.09c0,.27-.07.55-.12.86s-.11.61-.19.92a3.34,3.34,0,0,0-.12.73,4.29,4.29,0,0,0-.05.61.92.92,0,0,0,0,.31v1Q149.59,11.54,149.59,14.45ZM130.8,23.19a.44.44,0,0,0,.18-.08c.06-.06.09-.1.09-.13a.16.16,0,0,0-.13-.13s-.07,0-.13.09-.13.1-.13.13a.13.13,0,0,0,0,.09A.12.12,0,0,0,130.8,23.19Zm.27-12.54H131c-.06,0-.09.06-.09.17s.05.15.17.18h0c.06,0,.09-.06.09-.17S131.16,10.71,131.08,10.65Zm.74.8s.08,0,.13-.09.09-.1.09-.13a.12.12,0,0,0,0-.09s0,0,0,0-.07,0-.13.09-.13.1-.13.13a.13.13,0,0,0,0,.09A.12.12,0,0,0,131.81,11.46Zm0-.84s.08,0,.13-.09.09-.1.09-.13a.13.13,0,0,0,0-.09,0,0,0,0,0,0,0s-.07,0-.13.08-.13.1-.13.13a.12.12,0,0,0,0,.09A.13.13,0,0,0,131.82,10.62Zm0-1.94a.29.29,0,0,1,.26.13,0,0,0,0,0,0,0c.06,0,.1-.06.13-.17a.25.25,0,0,0-.21-.27h0c-.12,0-.21.09-.27.26Zm.51,1.24h.09s0,0,0,0,.09-.06.09-.18.18-.1.18-.13a.15.15,0,0,0,0-.09h0c-.06,0-.09,0-.09.13v.09C132.44,9.82,132.36,9.87,132.36,9.92Zm.25,1a.46.46,0,0,0,.18-.09.28.28,0,0,0,.09-.13.14.14,0,0,0,0-.09.13.13,0,0,0-.09,0s-.07,0-.13.09-.09.1-.09.13a.13.13,0,0,0,0,.09S132.58,10.89,132.61,10.9Zm0-2.73a.46.46,0,0,0,.18-.09.28.28,0,0,0,.09-.13.14.14,0,0,0,0-.09.13.13,0,0,0-.09,0s-.07,0-.13.09-.09.1-.09.13a.13.13,0,0,0,0,.09S132.62,8.17,132.65,8.17Zm.32-1.1s.08,0,.13-.09a.25.25,0,0,0,.09-.13.13.13,0,0,0,0-.09.13.13,0,0,0-.09,0s-.07,0-.13.09-.09.1-.09.13a.12.12,0,0,0,0,.09A.13.13,0,0,0,133,7.07Zm1,1.64V8.63a.43.43,0,0,0-.26-.18h0a.3.3,0,0,0-.22.09v.09c0,.06.09.18.26.36-.2,0-.31.05-.31.17a.35.35,0,0,0,.09.27.17.17,0,0,0,.13,0h.09a.24.24,0,0,0,0-.17,1.44,1.44,0,0,0,0-.31C133.87,8.89,134,8.8,134,8.71Zm.05-.53a.44.44,0,0,0,.18-.09.28.28,0,0,0,.09-.13.14.14,0,0,0,0-.09.13.13,0,0,0-.09,0s-.07,0-.13.09-.09.1-.09.13a.13.13,0,0,0,0,.09A0,0,0,0,0,134,8.19Zm.55,19.42a.44.44,0,0,0,.18-.09c.06-.06.09-.1.09-.13a.13.13,0,0,0,0-.09h0a.38.38,0,0,0-.17,0c-.09.06-.13.1-.13.13a.14.14,0,0,0,0,.09A.13.13,0,0,0,134.57,27.61Zm4.83-10.85s.08,0,.13-.09a.25.25,0,0,0,.09-.13.14.14,0,0,0,0-.09,0,0,0,0,0,0,0s-.07,0-.13.09-.13.1-.13.13a.13.13,0,0,0,0,.09A.12.12,0,0,0,139.39,16.76Zm2.42,3s.07,0,.13-.09.09-.1.09-.13a.15.15,0,0,0-.13-.13s-.07,0-.13.08-.09.1-.09.13a.16.16,0,0,0,.13.13Zm.61.14h0c.06,0,.09-.06.09-.18s0-.12-.13-.17h-.09c-.06,0-.09.06-.09.17S142.31,19.9,142.43,19.93Zm.32-1a.49.49,0,0,0,.27-.08.18.18,0,0,0,0-.13v-.09a.34.34,0,0,0-.22,0,1.11,1.11,0,0,0-.26,0,1.49,1.49,0,0,0,0-.27.35.35,0,0,0,0-.22h-.09a.17.17,0,0,0-.13,0,.47.47,0,0,0-.09.26c0,.12.1.18.31.18C142.58,18.86,142.63,19,142.75,19Zm.45-.52s.08,0,.13-.09a.26.26,0,0,0,.09-.13.14.14,0,0,0,0-.09,0,0,0,0,0,0,0s-.07,0-.13.09-.13.1-.13.13a.13.13,0,0,0,0,.09A.14.14,0,0,0,143.2,18.45Zm.18,3a.43.43,0,0,0,.22-.09.13.13,0,0,0,0-.09.2.2,0,0,0,0-.13h0a.33.33,0,0,0-.13,0c-.09.06-.13.12-.13.17a.12.12,0,0,0,0,.09Zm.25-5.23a.31.31,0,0,0-.13,0c-.09.06-.13.12-.13.17a.12.12,0,0,0,0,.09h0a.43.43,0,0,0,.22-.08.14.14,0,0,0,0-.09.19.19,0,0,0,0-.13Zm.24,4.62a0,0,0,0,0,0,0c.12,0,.21-.09.27-.26h-.09a.3.3,0,0,1-.26-.14.12.12,0,0,0-.09,0c-.06,0-.1.06-.13.17A.24.24,0,0,0,143.87,20.83Zm0,5a.48.48,0,0,0,.18-.09c.06-.06.09-.1.09-.13a.13.13,0,0,0,0-.09.14.14,0,0,0-.09,0s-.07,0-.13.09-.09.1-.09.13a.13.13,0,0,0,0,.09A0,0,0,0,0,143.88,25.85Zm-.08-6.25a.13.13,0,0,0,0,.09,3.51,3.51,0,0,0,.61.67.5.5,0,0,1,0-.22.38.38,0,0,1,0-.17,2.23,2.23,0,0,1,0-.44v-.13a.91.91,0,0,0,0-.27c0-.09-.12-.13-.26-.14s-.1-.22-.13-.22a0,0,0,0,0,0,0,.13.13,0,0,0,0,.09c0,.06.07.09.22.09C143.94,19.25,143.8,19.45,143.8,19.6Zm.09,5.68a.48.48,0,0,0,.18-.09.15.15,0,0,0,.09-.13.13.13,0,0,0,0-.09h0a.38.38,0,0,0-.17,0c-.06.06-.09.1-.09.13a.17.17,0,0,0,0,.13Zm0-3a.48.48,0,0,0,.18-.09c.06-.06.09-.1.09-.13a.13.13,0,0,0,0-.09.13.13,0,0,0-.09,0s-.07,0-.13.09-.09.1-.09.13a.13.13,0,0,0,0,.09S143.9,22.29,143.93,22.29Zm.2-7.88h0c-.06,0-.09.06-.09.17a.17.17,0,0,0,.13.18h0c.06,0,.09-.06.09-.18S144.23,14.47,144.14,14.41Zm.12,7.14a0,0,0,0,0,0,0,.13.13,0,0,0,.09,0s0,0,0-.09v-.09a.77.77,0,0,1,.39.27.82.82,0,0,0,.44.27v-.4a.81.81,0,0,0-.21-.22l-.24-.18a.38.38,0,0,1-.1-.31h.13a.18.18,0,0,0,.13,0,.66.66,0,0,1,0-.22c.2,0,.31-.06.31-.17a.35.35,0,0,0-.08-.26.4.4,0,0,0-.18,0h0s0,0,0,.13a1.84,1.84,0,0,0,0,.35h-.13c-.06,0-.09,0-.09,0a1.88,1.88,0,0,0-.09.22c-.15,0-.22.06-.22.17h0v.09a.56.56,0,0,1-.09.31C144.31,21.49,144.25,21.52,144.25,21.55Zm4.17-6.48a3.75,3.75,0,0,0,.51-.15.66.66,0,0,0,.31-.22v0c0-.09-.1-.17-.3-.27-.06.2-.12.31-.18.31a1,1,0,0,1-.06-.31c0-.15,0-.29-.06-.44s-.12-.13-.17-.13a.14.14,0,0,0-.09,0v-.57h0c.15,0,.22-.09.23-.26s.22-.1.22-.13a.13.13,0,0,0,0-.09h-.09c-.06,0-.09.07-.09.22h0c-.15,0-.22.09-.22.26q-.44,0-.48-.1v0A.28.28,0,0,1,148,13l.24-.24a.46.46,0,0,0,.16-.33,2.89,2.89,0,0,1-.57.08.54.54,0,0,0-.31.06,1,1,0,0,0-.2.22c-.08.1-.17.26-.29.46v-.09a.41.41,0,0,0-.26-.44v-.09a.66.66,0,0,0-.74-.76h-.09V11c0-.12-.07-.18-.13-.18s-.22.09-.4.26c-.06-.12-.1-.18-.13-.18a0,0,0,0,0,0,0l0,0c0,.06,0,.09.13.09h.09a.69.69,0,0,1,.19.46.4.4,0,0,0,.32.38v.53a.77.77,0,0,0-.35-.14.13.13,0,0,0-.09,0,.29.29,0,0,0-.09.22,0,0,0,0,0,0,0,2.94,2.94,0,0,0,0,.49v.13a.52.52,0,0,1-.09.3.26.26,0,0,1-.22.13h-.35a.86.86,0,0,0-.33.06c-.1,0-.17.17-.2.37,0,0,.1.09.3.18s.22.15.22.27v.09a.84.84,0,0,0,0,.22.08.08,0,0,0,.09.09,1.22,1.22,0,0,0,.35-.06,4.28,4.28,0,0,1,.49-.1h.09a.64.64,0,0,1,.39.14l-.18.44a2.64,2.64,0,0,1-.18.31.14.14,0,0,1-.13.09h0c0-.15-.06-.22-.09-.22a.14.14,0,0,0-.09,0,1.17,1.17,0,0,0-.1.44c-.12,0-.18.07-.18.13a.17.17,0,0,0,.17.13.87.87,0,0,1,.26.45v.44a.31.31,0,0,0,0,.13.56.56,0,0,0,0,.22.24.24,0,0,0,.26.18v-.13a1,1,0,0,1,.13-.26.82.82,0,0,1,.22-.22s0,0,.09,0a.29.29,0,0,1,.13.09,1.09,1.09,0,0,1-.14.57l-.27.42-.27.39a1.26,1.26,0,0,0-.19.55,1.32,1.32,0,0,1,.35,0,1.46,1.46,0,0,1,.35,0h.09c.18,0,.28-.1.31-.3-.18,0-.28-.09-.31-.18v0a.3.3,0,0,1,.09-.22,2.2,2.2,0,0,1,.35-.17h.13a.48.48,0,0,1,.26.09v.26c-.21,0-.31.05-.31.17a.3.3,0,0,0,.13.27.18.18,0,0,0,.13,0h0a.18.18,0,0,0,0-.13,1.8,1.8,0,0,0,0-.35.46.46,0,0,1,.26.16.38.38,0,0,0,.31.12c0,.32,0,.5.12.53a.12.12,0,0,0,.09,0,.25.25,0,0,0,.18-.09.27.27,0,0,0,0-.18V19c0-.12-.17-.2-.44-.23a.4.4,0,0,0,0-.18.3.3,0,0,0-.13-.27l-.48-.09a.53.53,0,0,1-.35-.27.86.86,0,0,1-.13-.44.13.13,0,0,1,0-.09.58.58,0,0,1,.14-.35.48.48,0,0,1,.4-.21.79.79,0,0,1,0,.22.21.21,0,0,1-.14.22.45.45,0,0,0-.18.39h.17a.39.39,0,0,0,.18,0,.28.28,0,0,0,.13-.17,1.26,1.26,0,0,1,.12-.24.26.26,0,0,1,.24-.1,2.07,2.07,0,0,0-.05.39.4.4,0,0,0,0,.18c0,.12.07.18.13.18s.1-.06.14-.17a.49.49,0,0,0,0-.22,1.44,1.44,0,0,0,0-.35h0c.15,0,.22-.08.22-.26h.27v0q0,.22.31.23c0,.12.06.18.09.18a.13.13,0,0,0,.09,0v-.09s0,0-.09,0h-.09v0c0-.15-.1-.22-.3-.23v-.09a.49.49,0,0,0-.26-.49V16c.15-.06.22-.1.22-.13s0,0,0,0h-.09c-.06,0-.09.06-.09.17l-.33-.2a.52.52,0,0,1-.19-.33h0c.15,0,.22-.09.22-.26S148.23,15.11,148.42,15.07Zm-4,10a.44.44,0,0,0,.18-.09.34.34,0,0,0,0-.13.13.13,0,0,0,0-.09s0,0,0,0a.25.25,0,0,0-.13.08c-.09.06-.13.1-.13.13a.16.16,0,0,0,.13.13Zm.24-7.7-.13,0c-.09.06-.13.12-.13.17a.12.12,0,0,0,0,.09h0a.42.42,0,0,0,.22-.09.12.12,0,0,0,0-.09.18.18,0,0,0,0-.13Zm-.11-1.59a.71.71,0,0,0,.31-.08c.12-.06.18-.12.18-.17v0a.13.13,0,0,0-.09,0,.47.47,0,0,0-.26.09c-.15.06-.22.12-.22.17v0A.12.12,0,0,0,144.6,15.74Zm.86,10.67a0,0,0,0,0,0,0,.29.29,0,0,0,.18-.22v-.09a.26.26,0,0,0,0-.18h-.09a.62.62,0,0,0-.35.21,1.68,1.68,0,0,0,0-.31c0-.12,0-.19-.08-.22h0a.38.38,0,0,0-.27.13.49.49,0,0,0-.18.3l0,0c0,.06.06.09.17.09l.31,0C145.28,26.3,145.37,26.4,145.46,26.41ZM144.76,14s0-.08.13-.13.1-.09.13-.09a.13.13,0,0,1,.09,0,.13.13,0,0,1,0,.09s0,.06-.09.09a.43.43,0,0,1-.22.08h0A.13.13,0,0,1,144.76,14Zm.16,16a.48.48,0,0,0,.18-.09c.06-.06.09-.1.09-.13a.16.16,0,0,0-.13-.13s-.08,0-.13.09-.09.1-.09.13a.13.13,0,0,0,0,.09S144.89,30,144.92,30Zm.25-10.88h0c-.06,0-.09.06-.09.18s0,.1.13.13l0,0c.06,0,.09-.06.09-.17A.17.17,0,0,0,145.17,19.09Zm.11-7.39h0c-.06,0-.09.06-.09.17s0,.1.13.13l0,0c.06,0,.09-.06.09-.18S145.36,11.76,145.28,11.7ZM145.23,27a.39.39,0,0,0,.18-.09c.06-.06.09-.1.09-.13a.13.13,0,0,0,0-.09.12.12,0,0,0-.09,0s-.07,0-.13.09-.09.1-.09.13a.12.12,0,0,0,0,.09A0,0,0,0,0,145.23,27Zm.29-10.91v.09s-.06.06-.18.09V16A.26.26,0,0,1,145.52,16.06Zm.1-6.69s-.07,0-.13.09-.09.1-.09.13a.12.12,0,0,0,0,.09,0,0,0,0,0,0,0,.48.48,0,0,0,.18-.09.28.28,0,0,0,.09-.13.14.14,0,0,0,0-.09A.13.13,0,0,0,145.62,9.37Zm0-1.89s-.07,0-.13.08a.26.26,0,0,0-.09.13.12.12,0,0,0,0,.09s0,0,0,0a.48.48,0,0,0,.18-.09c.06-.06.09-.1.09-.13a.16.16,0,0,0-.13-.13Zm-.07,14a.25.25,0,0,0,.18-.09.14.14,0,0,0,.09-.13.12.12,0,0,0,0-.09h0a.38.38,0,0,0-.17,0,.24.24,0,0,0-.09.17.12.12,0,0,0,0,.09Zm0-1.1a.26.26,0,0,0,.18-.08.14.14,0,0,0,.09-.13.12.12,0,0,0,0-.09h0a.38.38,0,0,0-.17,0,.24.24,0,0,0-.09.17.12.12,0,0,0,0,.09Zm.57-6s0,0,0,0a.42.42,0,0,1-.35-.31.3.3,0,0,1-.08-.22.44.44,0,0,1,.09-.22s0,0,.09,0a1.31,1.31,0,0,1,.61.27C146.39,14.21,146.28,14.4,146.16,14.4Zm-.25,5.19a.5.5,0,0,0,.18-.08.35.35,0,0,0,0-.13.12.12,0,0,0,0-.09s0,0,0,0-.07,0-.13.09-.13.1-.13.13a.12.12,0,0,0,0,.09A.14.14,0,0,0,145.91,19.59Zm.32-3.56a.2.2,0,0,1,.22.22c0,.15-.08.22-.13.22s-.06,0-.09-.09a.48.48,0,0,0-.35-.14A.34.34,0,0,1,146.23,16Zm-.08-3.53v0c0,.06-.06.09-.09.09s-.07-.08-.13-.22C146.07,12.41,146.15,12.44,146.15,12.5Zm.06-4.18-.13,0c-.09.06-.13.1-.13.13a.12.12,0,0,0,0,.09.12.12,0,0,0,.09,0,.46.46,0,0,0,.18-.08.35.35,0,0,0,0-.13.12.12,0,0,0,0-.09Zm-.1,15.63a.48.48,0,0,0,.18-.09c.06-.06.09-.1.09-.13a.13.13,0,0,0,0-.09h0a.39.39,0,0,0-.18,0c-.09.06-.13.1-.13.13a.14.14,0,0,0,0,.09A.13.13,0,0,0,146.11,23.95Zm.68-13.77a.46.46,0,0,0,0-.22.37.37,0,0,0-.31-.23.12.12,0,0,0-.09,0,.48.48,0,0,0-.32.44.13.13,0,0,0,0,.09c0,.23.17.49.52.76a1,1,0,0,0,.61.71.34.34,0,0,0,.13,0,.74.74,0,0,0,.62-.43c.18-.06.27-.16.27-.3v0a.25.25,0,0,0-.26-.23,3.81,3.81,0,0,1-.39-.58,1.9,1.9,0,0,0-.43-.53v.49a2.61,2.61,0,0,1,0,.48.7.7,0,0,1-.09.39.36.36,0,0,1-.18,0,1.28,1.28,0,0,1-.31,0A2.32,2.32,0,0,0,146.8,10.18Zm-.52,11.26s-.07,0-.13.09-.13.1-.13.13a.14.14,0,0,0,0,.09h0a.45.45,0,0,0,.22-.09q.09,0,.09-.09a.15.15,0,0,0-.13-.13Zm.56-8.18H147a.6.6,0,0,1-.2.35,1.64,1.64,0,0,1-.33.21,1.4,1.4,0,0,0-.17-.49c-.06-.06-.09-.1-.09-.13s.09-.16.27-.22A.31.31,0,0,0,146.84,13.26Zm-.4-5.64h-.09c-.06,0-.09.06-.09.17s.06.1.17.13a0,0,0,0,0,0,0c.06,0,.09-.06.09-.17A.18.18,0,0,0,146.44,7.62Zm1.19,14.76a.12.12,0,0,0,0,.09.71.71,0,0,0,.22.27.26.26,0,0,0,.22.13s0,0,0,0,.09,0,.09-.13v-.13a.67.67,0,0,0-.5-.45,1.09,1.09,0,0,1-.59-.36.2.2,0,0,0,.22-.22,1.46,1.46,0,0,1,0-.35q.31-.12.31-.35a.45.45,0,0,0-.08-.31.13.13,0,0,0-.09,0,.13.13,0,0,0-.09,0,.36.36,0,0,0-.09.26,2,2,0,0,0,0,.39c-.15,0-.22.06-.22.17h0v.09a.55.55,0,0,1-.09.31h-.27c-.06-.15-.1-.22-.13-.22a0,0,0,0,0,0,0v.09c0,.06.06.09.17.09a.71.71,0,0,1-.36.3c-.15,0-.22.13-.22.31a.39.39,0,0,0,0,.18c0,.15.07.22.13.22s.06,0,.09-.09a.34.34,0,0,1,.31-.13c.11.32.2.49.26.49v0s.08,0,.13-.13l.14-.35a.52.52,0,0,1,.31-.3C147.66,22.33,147.63,22.36,147.63,22.39Zm-1.08-1.51a.27.27,0,0,0-.13.08c-.06.06-.09.1-.09.13a.12.12,0,0,0,0,.09s0,0,0,0a.4.4,0,0,0,.18-.09q.09-.08.09-.13a.13.13,0,0,0,0-.09A.12.12,0,0,0,146.55,20.87Zm.06-1.06a.43.43,0,0,0-.18,0c-.06.06-.09.1-.09.13a.13.13,0,0,0,0,.09,0,0,0,0,0,0,0,.4.4,0,0,0,.18-.09q.09-.08.09-.13a.13.13,0,0,0,0-.09Zm.15-7v0h0c-.15,0-.22.09-.22.26C146.67,13,146.76,12.92,146.76,12.78Zm-.12,2.11c-.09,0-.13,0-.13-.09l0,0s0,0,0,0,.07.06.13.18Zm0,12.11s.08,0,.13-.09.09-.1.09-.13a.13.13,0,0,0,0-.09.12.12,0,0,0-.09,0s-.08,0-.13.09-.09.1-.09.13a.14.14,0,0,0,0,.09A.12.12,0,0,0,146.64,27ZM147,15.25a.43.43,0,0,1-.09.31c-.06.06-.1.09-.13.09s-.06,0-.09-.09-.09-.1-.09-.22a2,2,0,0,1,.1-.44C146.93,15,147,15.1,147,15.25Zm-.3,5.23a0,0,0,0,0,0,0,.13.13,0,0,0,.09,0s0,0,0-.09v-.09c.12-.05.18-.1.18-.13a.13.13,0,0,0,0-.09h0c-.06,0-.09,0-.09.13v.09C146.79,20.42,146.73,20.45,146.73,20.48Zm.18-6.11a.37.37,0,0,1,0-.18A.24.24,0,0,1,147,14a.26.26,0,0,1,.18-.09.36.36,0,0,1,.17,0c.15.06.21.28.21.66C147.17,14.6,147,14.51,146.91,14.36Zm0,8.1c0-.06,0-.09,0-.09H147a.13.13,0,0,1,0,.09s-.06.06-.18.09Zm.31-6.29s0-.07.13-.13a.33.33,0,0,1,.13,0h0a.13.13,0,0,1,0,.09.34.34,0,0,1,0,.13.44.44,0,0,1-.18.09.12.12,0,0,1-.09,0A.14.14,0,0,1,147.19,16.17Zm.19.42a1.27,1.27,0,0,1,.35-.08,2,2,0,0,0,.35-.06.42.42,0,0,0,.24-.17v.57h0c-.15,0-.22.09-.22.26h-.27c0-.15-.06-.22-.17-.22a1.73,1.73,0,0,1-.39,0A.24.24,0,0,1,147.38,16.59ZM147.84,8s-.07,0-.13.09-.13.1-.13.13a.12.12,0,0,0,0,.09.12.12,0,0,0,.09,0,.48.48,0,0,0,.18-.09.28.28,0,0,0,.09-.13.14.14,0,0,0,0-.09A.13.13,0,0,0,147.84,8Zm0,2.77c-.18.06-.27.16-.27.31h0c0,.18.07.26.21.27Zm-.24,4.53c0-.06.06-.1.18-.13v.27A.18.18,0,0,1,147.64,15.34ZM148,15c.06,0,.1.06.13.18h-.26A.17.17,0,0,1,148,15Zm.36-3.3h0c-.09.06-.13.12-.13.17S148,12,148,12s0,0,0,0l0,0c.06,0,.09,0,.09-.13v-.09h.26c.06.12.1.18.13.18a.12.12,0,0,0,.09,0v0c0-.06,0-.09-.13-.09h-.09C148.37,11.8,148.35,11.74,148.32,11.74Zm-.12,2.2s0,0,0,0a.13.13,0,0,0,.09,0s0,0,0-.09v-.09C148.25,13.88,148.2,13.91,148.2,13.94Zm.45-3.43s-.07,0-.13.09-.13.1-.13.13a.12.12,0,0,0,0,.09.15.15,0,0,0,.09,0,.48.48,0,0,0,.18-.09.34.34,0,0,0,0-.13.13.13,0,0,0,0-.09S148.67,10.52,148.64,10.52Zm.15,7.48a.38.38,0,0,0,.27-.13.14.14,0,0,0,0-.09V17.7a.26.26,0,0,0-.18,0,1.8,1.8,0,0,0-.35,0c0-.15-.07-.22-.13-.22v0a.12.12,0,0,0,0,.09c0,.06.06.09.17.09C148.61,17.9,148.68,18,148.79,18Z"/></svg>